<svg width="16" height="19" viewBox="0 0 16 19" fill="none" xmlns="http://www.w3.org/2000/svg">
<path d="M14.6654 7.83464C14.6654 12.8346 7.9987 17.8346 7.9987 17.8346C7.9987 17.8346 1.33203 12.8346 1.33203 7.83464C1.33203 6.06653 2.03441 4.37083 3.28465 3.12059C4.5349 1.87035 6.23059 1.16797 7.9987 1.16797C9.76681 1.16797 11.4625 1.87035 12.7127 3.12059C13.963 4.37083 14.6654 6.06653 14.6654 7.83464Z" stroke="#FFBC80" stroke-width="2" stroke-linecap="round" stroke-linejoin="round"/>
<path d="M8 10.3359C9.38071 10.3359 10.5 9.21665 10.5 7.83594C10.5 6.45523 9.38071 5.33594 8 5.33594C6.61929 5.33594 5.5 6.45523 5.5 7.83594C5.5 9.21665 6.61929 10.3359 8 10.3359Z" stroke="#FFBC80" stroke-width="2" stroke-linecap="round" stroke-linejoin="round"/>
</svg>
