<svg width="14" height="14" viewBox="0 0 14 14" fill="none" xmlns="http://www.w3.org/2000/svg">
<g clip-path="url(#clip0_1236_20752)">
<g filter="url(#filter0_d_1236_20752)">
<path fill-rule="evenodd" clip-rule="evenodd" d="M7 1C5.93913 1 4.92172 1.42143 4.17157 2.17157C3.42143 2.92172 3 3.93913 3 5C3 5.50538 3.23839 6.26231 3.65706 7.16898C4.0669 8.0565 4.61769 9.02184 5.1749 9.9202C5.73106 10.8169 6.28804 11.6379 6.70642 12.2352C6.81442 12.3894 6.91309 12.5286 7 12.6501C7.08691 12.5286 7.18558 12.3894 7.29358 12.2352C7.71196 11.6379 8.26894 10.8169 8.8251 9.9202C9.38231 9.02184 9.9331 8.0565 10.3429 7.16898C10.7616 6.26231 11 5.50538 11 5C11 3.93913 10.5786 2.92172 9.82843 2.17157C9.07828 1.42143 8.06087 1 7 1ZM7 13.5C6.59976 13.7997 6.59971 13.7996 6.59965 13.7995L6.59603 13.7947L6.5859 13.7811L6.54726 13.7289C6.51362 13.6834 6.46455 13.6166 6.40226 13.531C6.27771 13.3597 6.10018 13.1128 5.88733 12.8089C5.46196 12.2015 4.89394 11.3644 4.3251 10.4473C3.75731 9.53191 3.1831 8.52788 2.74919 7.58821C2.32411 6.66769 2 5.73962 2 5C2 3.67392 2.52678 2.40215 3.46447 1.46447C4.40215 0.526784 5.67392 0 7 0C8.32608 0 9.59785 0.526784 10.5355 1.46447C11.4732 2.40215 12 3.67392 12 5C12 5.73962 11.6759 6.66769 11.2508 7.58821C10.8169 8.52788 10.2427 9.53191 9.6749 10.4473C9.10606 11.3644 8.53804 12.2015 8.11267 12.8089C7.89982 13.1128 7.72229 13.3597 7.59774 13.531C7.53545 13.6166 7.48638 13.6834 7.45274 13.7289L7.4141 13.7811L7.40397 13.7947L7.40056 13.7992C7.4005 13.7993 7.40024 13.7997 7 13.5ZM7 13.5L7.40056 13.7992C7.30615 13.9253 7.15752 14 7 14C6.84248 14 6.69406 13.9256 6.59965 13.7995L7 13.5Z" fill="#000001"/>
</g>
<g filter="url(#filter1_d_1236_20752)">
<path fill-rule="evenodd" clip-rule="evenodd" d="M7 4C6.44772 4 6 4.44772 6 5C6 5.55228 6.44772 6 7 6C7.55228 6 8 5.55228 8 5C8 4.44772 7.55228 4 7 4ZM5 5C5 3.89543 5.89543 3 7 3C8.10457 3 9 3.89543 9 5C9 6.10457 8.10457 7 7 7C5.89543 7 5 6.10457 5 5Z" fill="#000001"/>
</g>
</g>
<defs>
<filter id="filter0_d_1236_20752" x="-2" y="0" width="18" height="22" filterUnits="userSpaceOnUse" color-interpolation-filters="sRGB">
<feFlood flood-opacity="0" result="BackgroundImageFix"/>
<feColorMatrix in="SourceAlpha" type="matrix" values="0 0 0 0 0 0 0 0 0 0 0 0 0 0 0 0 0 0 127 0" result="hardAlpha"/>
<feOffset dy="4"/>
<feGaussianBlur stdDeviation="2"/>
<feComposite in2="hardAlpha" operator="out"/>
<feColorMatrix type="matrix" values="0 0 0 0 0 0 0 0 0 0 0 0 0 0 0 0 0 0 0.25 0"/>
<feBlend mode="normal" in2="BackgroundImageFix" result="effect1_dropShadow_1236_20752"/>
<feBlend mode="normal" in="SourceGraphic" in2="effect1_dropShadow_1236_20752" result="shape"/>
</filter>
<filter id="filter1_d_1236_20752" x="1" y="3" width="12" height="12" filterUnits="userSpaceOnUse" color-interpolation-filters="sRGB">
<feFlood flood-opacity="0" result="BackgroundImageFix"/>
<feColorMatrix in="SourceAlpha" type="matrix" values="0 0 0 0 0 0 0 0 0 0 0 0 0 0 0 0 0 0 127 0" result="hardAlpha"/>
<feOffset dy="4"/>
<feGaussianBlur stdDeviation="2"/>
<feComposite in2="hardAlpha" operator="out"/>
<feColorMatrix type="matrix" values="0 0 0 0 0 0 0 0 0 0 0 0 0 0 0 0 0 0 0.25 0"/>
<feBlend mode="normal" in2="BackgroundImageFix" result="effect1_dropShadow_1236_20752"/>
<feBlend mode="normal" in="SourceGraphic" in2="effect1_dropShadow_1236_20752" result="shape"/>
</filter>
<clipPath id="clip0_1236_20752">
<rect width="14" height="14" fill="white"/>
</clipPath>
</defs>
</svg>
