<svg width="20" height="21" viewBox="0 0 20 21" fill="none" xmlns="http://www.w3.org/2000/svg">
<path d="M7.91833 4.0475C7.79465 3.73839 7.58121 3.4734 7.30554 3.2867C7.02988 3.1 6.70461 3.00014 6.37167 3H4.07917C3.66035 3 3.25868 3.16638 2.96253 3.46253C2.66638 3.75868 2.5 4.16035 2.5 4.57917C2.5 11.9908 8.50833 18 15.9217 18C16.3403 17.9998 16.7418 17.8333 17.0378 17.5372C17.3337 17.2411 17.5 16.8395 17.5 16.4208V14.1283C17.5 13.7952 17.4002 13.4698 17.2135 13.194C17.0268 12.9181 16.7617 12.7046 16.4525 12.5808L14.2558 11.7025C13.9769 11.5909 13.673 11.5567 13.3762 11.6037C13.0794 11.6506 12.8009 11.7769 12.57 11.9692L12.0033 12.4425C11.6837 12.7089 11.276 12.8462 10.8603 12.8274C10.4446 12.8086 10.0509 12.6351 9.75667 12.3408L8.16 10.7417C7.86595 10.4477 7.69241 10.0544 7.67345 9.63904C7.65448 9.22367 7.79146 8.81622 8.0575 8.49667L8.53 7.93C8.72271 7.69921 8.84939 7.42058 8.89663 7.12365C8.94387 6.82672 8.9099 6.52253 8.79833 6.24333L7.91833 4.0475Z" stroke="#1D1D1D" stroke-width="2" stroke-linecap="round" stroke-linejoin="round"/>
</svg>
