<svg width="20" height="20" viewBox="0 0 20 20" fill="none" xmlns="http://www.w3.org/2000/svg">
<mask id="mask0_2003_4814" style="mask-type:luminance" maskUnits="userSpaceOnUse" x="0" y="0" width="20" height="20">
<path d="M0.160156 0.224609H19.7059V19.7703H0.160156V0.224609Z" fill="white"/>
</mask>
<g mask="url(#mask0_2003_4814)">
<path fill-rule="evenodd" clip-rule="evenodd" d="M14.343 11.9374C14.1003 11.8161 12.9105 11.2313 12.689 11.1499C12.4675 11.0693 12.3062 11.0294 12.1441 11.272C11.9829 11.5131 11.5195 12.0588 11.3786 12.22C11.2369 12.3821 11.096 12.4016 10.8541 12.2811C10.6122 12.1589 9.83203 11.904 8.90768 11.0799C8.18856 10.4381 7.70236 9.64568 7.56147 9.40299C7.42058 9.16111 7.546 9.02999 7.66735 8.90946C7.77648 8.80114 7.90922 8.62686 8.03057 8.48597C8.15192 8.34426 8.19182 8.24328 8.27245 8.08121C8.35389 7.91996 8.31317 7.77907 8.25209 7.65772C8.19182 7.53637 7.70807 6.3449 7.50609 5.86033C7.30982 5.38879 7.11029 5.45312 6.96207 5.44498C6.82036 5.43847 6.65911 5.43684 6.49786 5.43684C6.33661 5.43684 6.07437 5.4971 5.85285 5.7398C5.63052 5.98167 5.00587 6.56723 5.00587 7.75871C5.00587 8.94937 5.8724 10.1001 5.99374 10.2622C6.11509 10.4234 7.69992 12.8683 10.1277 13.9164C10.7059 14.1656 11.1563 14.3147 11.5073 14.4254C12.0871 14.6103 12.6149 14.5842 13.0318 14.5215C13.496 14.4523 14.4636 13.936 14.6655 13.3708C14.8667 12.8056 14.8667 12.321 14.8064 12.22C14.7462 12.119 14.5849 12.0588 14.3422 11.9374H14.343ZM9.92732 17.9665H9.92406C8.4821 17.9667 7.06662 17.5791 5.82597 16.8442L5.53279 16.6699L2.48528 17.4697L3.29887 14.4987L3.10749 14.1941C2.30134 12.9109 1.87472 11.4258 1.87692 9.91036C1.87855 5.47186 5.48962 1.86078 9.93058 1.86078C12.0806 1.86078 14.102 2.69962 15.6216 4.22093C16.3712 4.9674 16.9653 5.85509 17.3696 6.83264C17.7739 7.8102 17.9803 8.85822 17.9769 9.91607C17.9753 14.3546 14.3642 17.9665 9.92732 17.9665ZM16.7781 3.06529C15.8808 2.16205 14.8131 1.44587 13.637 0.958259C12.4609 0.470645 11.1997 0.22129 9.92651 0.224643C4.58889 0.224643 0.243226 4.56949 0.241597 9.90955C0.239123 11.609 0.684938 13.2791 1.53406 14.7512L0.160156 19.7704L5.29417 18.4233C6.71439 19.1971 8.30591 19.6026 9.92325 19.6026H9.92732C15.2649 19.6026 19.6106 15.2577 19.6122 9.91688C19.6162 8.64419 19.3677 7.38335 18.8812 6.20729C18.3948 5.03124 17.6799 3.96331 16.7781 3.06529Z" fill="black"/>
</g>
</svg>
