<svg width="16" height="16" viewBox="0 0 16 16" fill="none" xmlns="http://www.w3.org/2000/svg">
<path d="M6.10085 3.60403C6.94552 2.08936 7.36752 1.33203 7.99885 1.33203C8.63019 1.33203 9.05219 2.08936 9.89685 3.60403L10.1155 3.99603C10.3555 4.4267 10.4755 4.64203 10.6622 4.78403C10.8489 4.92603 11.0822 4.9787 11.5489 5.08403L11.9729 5.18003C13.6129 5.55136 14.4322 5.7367 14.6275 6.36403C14.8222 6.9907 14.2635 7.6447 13.1455 8.95203L12.8562 9.29003C12.5389 9.66137 12.3795 9.84736 12.3082 10.0767C12.2369 10.3067 12.2609 10.5547 12.3089 11.05L12.3529 11.5014C12.5215 13.246 12.6062 14.118 12.0955 14.5054C11.5849 14.8934 10.8169 14.5394 9.28219 13.8327L8.88419 13.65C8.44819 13.4487 8.23019 13.3487 7.99885 13.3487C7.76752 13.3487 7.54952 13.4487 7.11352 13.65L6.71619 13.8327C5.18085 14.5394 4.41285 14.8927 3.90285 14.506C3.39152 14.118 3.47619 13.246 3.64485 11.5014L3.68885 11.0507C3.73685 10.5547 3.76085 10.3067 3.68885 10.0774C3.61819 9.84736 3.45885 9.66136 3.14152 9.2907L2.85219 8.95203C1.73419 7.64536 1.17552 6.99136 1.37019 6.36403C1.56552 5.7367 2.38552 5.5507 4.02552 5.18003L4.44952 5.08403C4.91552 4.9787 5.14819 4.92603 5.33552 4.78403C5.52219 4.64203 5.64219 4.4267 5.88219 3.99603L6.10085 3.60403Z" stroke="#EFBD1A" stroke-width="1.5"/>
</svg>
