<svg width="14" height="14" viewBox="0 0 14 14" fill="none" xmlns="http://www.w3.org/2000/svg">
<path d="M5.10085 2.60403C5.94552 1.08936 6.36752 0.332031 6.99885 0.332031C7.63019 0.332031 8.05219 1.08936 8.89685 2.60403L9.11552 2.99603C9.35552 3.4267 9.47552 3.64203 9.66219 3.78403C9.84885 3.92603 10.0822 3.9787 10.5489 4.08403L10.9729 4.18003C12.6129 4.55136 13.4322 4.7367 13.6275 5.36403C13.8222 5.9907 13.2635 6.6447 12.1455 7.95203L11.8562 8.29003C11.5389 8.66136 11.3795 8.84736 11.3082 9.0767C11.2369 9.3067 11.2609 9.5547 11.3089 10.05L11.3529 10.5014C11.5215 12.246 11.6062 13.118 11.0955 13.5054C10.5849 13.8934 9.81685 13.5394 8.28219 12.8327L7.88419 12.65C7.44819 12.4487 7.23019 12.3487 6.99885 12.3487C6.76752 12.3487 6.54952 12.4487 6.11352 12.65L5.71619 12.8327C4.18085 13.5394 3.41285 13.8927 2.90285 13.506C2.39152 13.118 2.47619 12.246 2.64485 10.5014L2.68885 10.0507C2.73685 9.5547 2.76085 9.3067 2.68885 9.07736C2.61819 8.84736 2.45885 8.66136 2.14152 8.2907L1.85219 7.95203C0.734188 6.64536 0.175521 5.99136 0.370188 5.36403C0.565521 4.7367 1.38552 4.5507 3.02552 4.18003L3.44952 4.08403C3.91552 3.9787 4.14819 3.92603 4.33552 3.78403C4.52219 3.64203 4.64219 3.4267 4.88219 2.99603L5.10085 2.60403Z" fill="#EFBD1A"/>
</svg>
