<svg width="98" height="98" viewBox="0 0 98 98" fill="none" xmlns="http://www.w3.org/2000/svg">
<path d="M44.1182 4.65114C44.0654 2.41677 42.0498 0.463643 39.8154 0.477315C28.165 0.463643 16.5146 0.469502 4.86426 0.473409C2.51855 0.42458 0.428715 2.51833 0.477543 4.86208C0.467777 12.0867 0.467773 19.3093 0.475586 26.532C0.424805 28.8074 2.39161 30.8758 4.667 30.9265C8.11621 30.9539 11.5674 30.9363 15.0166 30.9343C15.5654 30.9519 16.1572 30.8504 16.6592 31.1238C22.0967 33.8367 27.5381 36.5418 32.9893 39.2254C34.9463 40.198 37.5479 38.8425 37.8877 36.6902C38.0674 34.7781 37.874 32.8484 37.9893 30.9304C39.9189 31.1179 42.167 30.8386 43.3193 29.073C43.9365 28.2351 44.1748 27.1746 44.1318 26.1453C44.1143 18.9812 44.1416 11.8152 44.1182 4.65114ZM40.3506 3.55544C40.917 3.80739 41.2334 4.4363 41.1904 5.04177C41.1904 12.1453 41.1904 19.2488 41.1904 26.3523C41.2549 27.0808 40.7568 27.8445 40.0127 27.9597C38.792 28.0711 37.5615 27.9304 36.3408 28.0183C35.6084 28.0633 35.0205 28.741 35.0264 29.4656C34.9775 31.6785 35.0674 33.8972 34.9893 36.1082C34.9795 36.5945 34.3623 36.7078 34.0244 36.4636C28.835 33.9011 23.6572 31.3152 18.4736 28.741C17.8096 28.4324 17.1631 27.9636 16.3955 27.9949C12.5518 27.9871 8.70606 28.0125 4.86036 27.9851C4.00293 28.0105 3.32129 27.1726 3.41309 26.3406C3.41114 19.2468 3.41114 12.1511 3.41309 5.05544C3.30567 4.13942 4.14161 3.30349 5.05762 3.41286C16.5147 3.41091 27.9736 3.41677 39.4307 3.41091C39.7412 3.42263 40.0635 3.42458 40.3506 3.55544Z" fill="#E5E5E5"/>
<path d="M31.5391 9.53323C31.5391 8.73236 30.8916 8.08217 30.0908 8.07876L15.852 8.01811C15.0261 8.01459 14.3561 8.68566 14.3609 9.51152C14.3656 10.3282 15.029 10.9877 15.8457 10.9877H30.0846C30.8879 10.9877 31.5391 10.3365 31.5391 9.53323Z" fill="#E5E5E5"/>
<path d="M31.5391 21.5215C31.5391 20.7206 30.8916 20.0705 30.0908 20.067L15.852 20.0064C15.0261 20.0029 14.3561 20.6739 14.3609 21.4998C14.3656 22.3165 15.029 22.976 15.8457 22.976H30.0846C30.8879 22.976 31.5391 22.3248 31.5391 21.5215Z" fill="#E5E5E5"/>
<path d="M27.5677 15.5357C27.5821 14.7265 26.9325 14.0615 26.1231 14.0568L19.1361 14.0164C18.319 14.0117 17.6541 14.6727 17.6541 15.4898C17.6541 16.3036 18.3138 16.9633 19.1276 16.9633H26.1147C26.9073 16.9633 27.5537 16.3282 27.5677 15.5357Z" fill="#E5E5E5"/>
<path fill-rule="evenodd" clip-rule="evenodd" d="M73.8602 23.4259C71.3778 20.3946 67.077 19.8165 63.411 20.3712C59.7567 20.8595 56.0809 22.0391 53.1942 24.4024C50.2176 26.7618 48.618 30.5821 48.7293 34.3497C48.6878 35.7328 48.9991 37.0708 49.3103 38.4086C49.6139 39.7138 49.9175 41.0189 49.8934 42.3653C50.1317 48.1095 51.7489 53.9044 55.1317 58.6095C55.8153 62.1778 53.8817 66.1192 50.5282 67.6309C48.9383 68.3013 47.3285 68.924 45.7185 69.5466C44.2894 70.0994 42.8693 70.6754 41.4378 71.2215C40.1161 71.7257 38.788 72.2324 37.6434 73.0821C34.7879 75.0938 33.0086 78.5157 32.9872 82.0079C32.9774 86.6954 32.9676 91.3829 32.9911 96.0684C32.9618 96.9298 33.7997 97.6173 34.6356 97.5255C39.3528 97.5259 44.0701 97.5267 48.7873 97.5275C64.5115 97.53 80.2357 97.5325 95.9598 97.5235C96.8543 97.5958 97.6122 96.7638 97.5243 95.8848C97.5214 94.1385 97.5228 92.3921 97.5242 90.6457C97.5266 87.6988 97.529 84.7518 97.5106 81.8048C97.4247 77.5821 94.7098 73.5645 90.8192 71.9181C89.0874 71.2117 87.3433 70.5351 85.5995 69.8586C83.7363 69.1358 81.8735 68.413 80.0262 67.6544C76.6415 66.1602 74.7157 62.2286 75.3407 58.6368C79.077 53.5098 80.6219 47.0763 80.6649 40.8028C80.8246 39.3904 81.1124 37.9974 81.4001 36.6042C81.6755 35.2713 81.9508 33.9383 82.1141 32.588C82.4754 28.8614 79.3934 25.2403 75.6532 25.0274C74.9946 25.0803 74.6736 24.579 74.3537 24.0793C74.2011 23.841 74.0488 23.6031 73.8602 23.4259ZM52.4715 39.0802C51.495 35.6993 51.1375 31.7735 53.2137 28.713C55.7176 25.0606 60.3094 23.6368 64.5184 23.2052C66.7079 23.0059 69.1454 23.1856 70.9208 24.627C71.4028 25.0014 71.7573 25.4965 72.1113 25.991C72.5145 26.5542 72.917 27.1164 73.5067 27.4981C74.0079 27.8297 74.5853 27.8829 75.1649 27.9363C75.6265 27.9789 76.0895 28.0216 76.5165 28.2052C78.3329 28.8614 79.5008 30.8927 79.1376 32.795C78.7508 34.8888 78.3368 36.9806 77.9227 39.0684C77.0809 38.5977 76.6239 37.6973 76.5477 36.7559C76.2586 34.5313 74.618 32.5333 72.4501 31.9083C67.8309 30.6895 62.9168 30.7208 58.2723 31.8028C55.9051 32.3438 54.075 34.504 53.8309 36.9063C53.7782 37.8145 53.2567 38.629 52.4715 39.0802ZM56.7176 37.4688C56.8016 36.1856 57.6766 34.9473 58.9696 34.6661C63.0926 33.6895 67.4579 33.67 71.5672 34.7188C72.954 35.0802 73.6571 36.5118 73.7665 37.8419C74.0887 39.9005 75.743 41.5177 77.6883 42.1251C77.4793 46.9259 76.3446 51.795 73.7489 55.8868C72.4227 57.8399 70.784 59.6954 68.5907 60.6856C66.5321 61.6798 64.0438 61.6837 61.9754 60.7169C59.3504 59.5177 57.4559 57.1798 56.0633 54.7208C53.9618 50.8595 52.9793 46.4473 52.8407 42.0763C54.8875 41.4727 56.5086 39.6075 56.7176 37.4688ZM56.7528 65.7227C57.3934 64.4493 57.8817 63.1016 58.0965 61.6856C60.1825 63.3536 62.7977 64.4708 65.5028 64.3751C68.0438 64.3438 70.4442 63.2384 72.4188 61.6954C72.6102 63.1895 73.1708 64.5958 73.8622 65.922C68.9442 69.6973 61.5829 69.6055 56.7528 65.7227ZM47.0646 72.1774C48.372 71.6681 49.6795 71.1587 50.9852 70.6446C51.9579 70.2618 52.8622 69.7305 53.7215 69.1388C54.7283 72.8518 55.7391 76.564 56.75 80.2764C58.0474 85.041 59.3448 89.8057 60.6336 94.5723C52.3993 94.5938 44.1629 94.586 35.9286 94.5763C35.9149 90.3888 35.9149 86.1993 35.9266 82.0098C35.9442 78.8477 37.9754 75.8204 40.8915 74.6036C42.9443 73.7827 45.0044 72.9801 47.0646 72.1774ZM76.1053 72.7709C76.4162 71.6246 76.7272 70.4784 77.0379 69.3321C79.4308 70.7104 82.0201 71.672 84.6103 72.6338C86.5825 73.3662 88.5553 74.0988 90.4422 75.0157C92.9208 76.4083 94.5399 79.1583 94.577 81.9981C94.5916 84.8424 94.5891 87.6877 94.5866 90.5326C94.5854 91.8799 94.5842 93.2272 94.5848 94.5743C86.4657 94.5958 78.3446 94.5782 70.2254 94.5841C72.1622 87.3078 74.1339 80.0389 76.1053 72.7709ZM63.7098 94.5821C61.3915 86.1837 59.1024 77.7755 56.8446 69.3614C59.4696 70.8891 65.5088 72.998 65.5088 72.998C65.5088 72.998 71.3731 70.9031 73.9383 69.42L67.0536 94.5645C65.9403 94.6192 64.8231 94.5684 63.7098 94.5821Z" fill="#E5E5E5"/>
</svg>
