<svg width="101" height="100" viewBox="0 0 101 100" fill="none" xmlns="http://www.w3.org/2000/svg">
<path fill-rule="evenodd" clip-rule="evenodd" d="M98.7992 0H84.8774C83.4165 0.574147 83.5018 2.05856 83.5823 3.45906C83.613 3.99282 83.6429 4.5144 83.5863 4.96875L83.4417 4.96771C82.8367 4.96388 82.2175 4.95996 81.6586 4.70312C79.9762 3.97007 78.2892 3.24792 76.6022 2.52579C74.6485 1.68946 72.6948 0.853169 70.7485 0H51.7836C49.102 0.421875 46.516 1.59766 44.6371 3.5918C42.9599 5.27413 41.2786 6.95258 39.5973 8.63101L39.5962 8.63212C36.8138 11.4098 34.0314 14.1874 31.268 16.9824C29.0961 19.1699 28.8402 22.9199 30.727 25.3633C32.0317 27.1797 34.3559 27.9687 36.5317 27.7461C37.0473 28.8789 37.5766 30.0195 38.3754 30.9844C38.4347 31.0687 38.5012 31.1519 38.5684 31.236C38.7999 31.5258 39.0392 31.8253 39.018 32.2129C39.0229 33.3258 39.0173 34.4393 39.0118 35.5527C39.0018 37.5678 38.9918 39.5829 39.0434 41.5957C39.1313 44.1602 41.4574 46.1894 43.9633 46.2676C43.9692 51.6152 43.9692 56.9629 43.9613 62.3105C43.9438 62.9766 44.0746 63.75 44.7152 64.0996C45.6517 64.647 46.6332 65.1174 47.6109 65.586C47.7669 65.6608 47.9229 65.7355 48.0785 65.8105C49.0096 66.2701 49.8963 65.7904 50.742 65.3327C51.0032 65.1914 51.2606 65.0521 51.5141 64.9434C51.6649 64.8649 51.828 64.7882 51.9955 64.7094C52.8865 64.2904 53.9019 63.813 53.8559 62.6934C53.8528 60.0597 53.8613 48.9029 53.8754 46.2695C56.307 46.1855 58.5805 44.2812 58.7719 41.8008C58.8448 40.2787 58.836 38.7524 58.8221 37.2265L58.8193 36.9212C58.8036 35.2358 58.788 33.5512 58.8754 31.873C60.0317 30.2773 61.1156 28.5957 61.641 26.668C62.7524 27.8457 63.9633 28.9551 65.4028 29.7207C69.766 32.166 75.4008 31.7871 79.6117 29.1992C81.4184 28.1816 82.6313 26.4687 83.5238 24.6465C83.5962 25.2377 83.5877 25.8331 83.5793 26.4282C83.5695 27.1189 83.5597 27.8092 83.6762 28.4922C83.8461 29.3516 84.7621 29.7695 85.5707 29.7148C86.7999 29.7148 88.0294 29.7163 89.2591 29.7178H89.2607C92.2665 29.7214 95.2731 29.725 98.2777 29.707C99.2719 29.7852 100.155 28.9336 100.082 27.9316C100.101 21.9946 100.098 16.0557 100.095 10.1168C100.093 7.39487 100.092 4.67293 100.092 1.95117C100.182 1.06641 99.6156 0.294922 98.7992 0ZM96.7836 26.4082C96.7992 18.709 96.7953 11.0117 96.7856 3.31445C93.4887 3.30859 90.1899 3.30664 86.893 3.31641C86.8852 11.0137 86.8813 18.7109 86.8949 26.4082C90.1918 26.418 93.4867 26.4219 96.7836 26.4082ZM78.0707 26.2852C79.0004 25.6504 79.9223 24.8105 80.1664 23.6621C80.2034 23.5252 80.2323 23.382 80.2609 23.2372C80.2628 23.2275 80.2647 23.2178 80.2666 23.2082C80.3648 22.7113 80.4657 22.2003 80.8813 21.8711C81.4324 21.4291 82.1356 21.4495 82.8224 21.4695C83.0825 21.477 83.3402 21.4845 83.5863 21.4668C83.583 19.5801 83.584 17.6931 83.5849 15.8059C83.5862 13.2894 83.5875 10.7726 83.5785 8.25586C83.4256 8.25552 83.2713 8.25812 83.1165 8.26074C82.3696 8.27333 81.6091 8.28616 80.9184 7.9707C79.3108 7.27499 77.7011 6.58519 76.0914 5.89541C74.2396 5.10185 72.3879 4.30833 70.5395 3.50586C70.054 3.29009 69.5235 3.29688 68.9998 3.30358C68.8599 3.30537 68.7204 3.30716 68.5824 3.30469C66.0771 3.3123 63.5717 3.3111 61.0664 3.30991C58.4291 3.30865 55.7919 3.30739 53.1547 3.31641C50.9418 3.29883 48.7445 4.16797 47.1801 5.74023C44.7685 8.12888 42.3704 10.5303 39.972 12.9319L39.9709 12.9331C38.0749 14.8317 36.1788 16.7304 34.2758 18.623C33.5824 19.2969 32.8852 20.082 32.7895 21.0898C32.4848 22.8594 33.9926 24.5312 35.7719 24.4883C36.9418 24.4629 37.6923 23.8363 39.0727 22.3301C39.3968 22.0113 39.7224 21.6933 40.0482 21.3751C41.3873 20.0673 42.7296 18.7562 43.9848 17.377C44.2934 16.1035 44.6627 15.0413 45.5727 13.8242C46.4718 12.6217 48.418 11.5645 50.6 11.5313C52.5281 11.5021 62.2424 11.5413 67.0953 11.5589C68.0015 11.5621 68.7305 12.108 68.73 13.0141C68.7296 13.919 67.9997 14.845 67.0948 14.8488C64.4842 14.86 61.8734 14.857 59.2625 14.854C56.3749 14.8507 53.4872 14.8474 50.6 14.8633C48.8305 14.8145 47.2211 16.3867 47.2758 18.1641C47.2289 19.8613 48.7074 21.4023 50.3988 21.4512C52.3938 21.486 54.3903 21.4798 56.3867 21.4735C58.3092 21.4675 60.2317 21.4615 62.1528 21.4922C63.0727 21.4687 63.7387 22.3047 63.7856 23.1719C63.9164 24.4551 64.8149 25.4883 65.8442 26.1855C69.4203 28.6289 74.4535 28.6562 78.0707 26.2852ZM56.6645 29.0879C57.8149 28.0137 58.3403 26.3145 58.6762 24.7793C57.3755 24.7613 56.0744 24.7653 54.7733 24.7693C53.2512 24.7739 51.729 24.7786 50.2074 24.748C47.9438 24.6836 45.8852 23.2773 44.7817 21.334C44.0334 22.0688 43.293 22.8113 42.5527 23.5537C41.5713 24.5378 40.59 25.5219 39.5902 26.4883C40.0004 27.4258 40.4731 28.3379 41.0805 29.166C43.4574 27.7461 46.102 26.6914 48.8793 26.457C51.6508 26.6484 54.2699 27.7383 56.6645 29.0879ZM51.4809 32.6211C52.4086 32.373 53.2875 31.9883 54.1274 31.5273C52.0961 30.3887 49.6449 29.2832 47.2973 30.0547C45.5219 30.4785 43.8695 31.2852 42.3324 32.252C42.3012 35.2363 42.3031 38.2207 42.3266 41.2031C42.2738 42.1953 43.186 42.9961 44.1528 42.9199L44.7148 42.9213C47.7271 42.9288 50.7425 42.9362 53.7563 42.916C54.6938 42.9727 55.5512 42.1719 55.5063 41.2207C55.5363 39.0837 55.5231 36.9468 55.5099 34.8081L55.5082 34.5391C54.9895 34.9235 54.3574 35.1285 53.7314 35.3315C52.7831 35.6391 51.8489 35.9421 51.3442 36.8574C50.1117 38.4199 47.4613 38.3144 46.2953 36.7246C45.0688 35.2734 45.5141 32.8379 47.1527 31.8887C48.5297 30.998 50.4477 31.3809 51.4809 32.6211ZM50.5668 61.7031C50.5629 56.5508 50.5629 51.3984 50.5668 46.2461C49.4692 46.2168 48.3695 46.2246 47.2719 46.2363C47.2543 51.3958 47.2628 56.5553 47.266 61.7148L48.8852 62.5332C49.4594 62.2812 50.0199 62.0039 50.5668 61.7031Z" fill="#E5E5E5"/>
<path d="M47.4833 71.0911C40.1962 69.7708 32.8974 68.5208 25.6083 67.2102C24.538 66.9368 23.5361 67.4895 22.5576 67.8333C19.54 68.929 16.5283 70.0422 13.5068 71.1243C13.1943 70.3547 13.0283 69.4641 12.4052 68.8723C11.7958 68.3391 10.9287 68.5403 10.2431 68.7962C7.43061 69.843 4.60248 70.8528 1.78412 71.886C1.16693 72.0715 0.745064 72.5696 0.418892 73.0989V73.8528C3.25288 81.5657 6.04779 89.2922 8.8642 97.0129C9.28022 98.0911 9.49311 99.4133 10.624 99.9993H11.3994C14.4872 98.8626 17.583 97.7454 20.6747 96.6184C21.3603 96.3938 22.0146 95.8508 22.0419 95.0794C22.0126 94.2727 21.6396 93.5325 21.4169 92.7708C21.9326 92.6516 22.4775 92.4485 22.9951 92.6712C25.8603 93.6419 28.7236 94.6165 31.5927 95.5774C32.5576 95.968 33.5263 95.4544 34.4267 95.136C45.2958 91.1594 56.1826 87.2297 67.0478 83.2434C69.8193 82.2532 71.7021 79.2903 71.3974 76.3606C71.1669 73.4446 68.7392 70.9172 65.8486 70.5266C64.1396 70.2122 62.4755 70.8313 60.9091 71.4368C58.0322 72.4778 55.1728 73.5598 52.2841 74.5676C51.2939 72.7649 49.5205 71.4407 47.4833 71.0911ZM25.7412 70.5872C32.8154 71.8606 39.8994 73.0676 46.9716 74.3469C48.6201 74.6204 49.913 76.2493 49.6982 77.927C49.5654 79.7454 47.704 81.1751 45.9111 80.843C40.2452 79.8782 34.589 78.8453 28.9249 77.864C28.0124 77.7059 27.1401 78.3183 26.9792 79.2303C26.822 80.1216 27.4299 80.9542 28.3217 81.1088C34.0578 82.103 39.7849 83.1606 45.5283 84.1184C49.2665 84.7278 52.9443 81.5794 53.0361 77.8157C56.6181 76.5305 60.1865 75.2024 63.7724 73.929C65.333 73.3489 67.2216 74.177 67.8603 75.7102C68.6708 77.4407 67.5185 79.6047 65.7802 80.2122C55.0419 84.1243 44.2998 88.0247 33.5634 91.9426C33.0634 92.095 32.5419 92.4504 32.0087 92.2356C29.0361 91.2337 26.0693 90.218 23.0927 89.2278C22.1279 88.8723 21.1923 89.4563 20.2958 89.7493C18.374 84.593 16.5087 79.4153 14.6435 74.2376C17.8955 73.0344 21.163 71.8723 24.415 70.6692C24.8369 70.4915 25.2997 70.4954 25.7412 70.5872ZM10.3974 72.2688C13.0517 79.4954 15.6728 86.7337 18.3017 93.97C16.2392 94.7337 14.1747 95.4876 12.1064 96.2317C9.45404 89.0071 6.84858 81.763 4.19624 74.5383C6.24897 73.7454 8.32709 73.0169 10.3974 72.2688Z" fill="#E5E5E5"/>
</svg>
