<svg width="95" height="94" viewBox="0 0 95 94" fill="none" xmlns="http://www.w3.org/2000/svg">
<path fill-rule="evenodd" clip-rule="evenodd" d="M61.86 -0.395233C63.1569 -0.110077 64.235 0.999298 64.4538 2.3157C64.5216 2.77047 64.5166 3.22903 64.5117 3.68779C64.5079 4.03487 64.5041 4.38207 64.5319 4.72781C64.9227 4.76246 65.3162 4.75556 65.7095 4.74865C66.2697 4.73882 66.8296 4.729 67.3815 4.83914C68.8503 5.1536 70.0046 6.53836 70.0202 8.04617C70.0359 9.15513 70.0313 10.2645 70.0266 11.3737V11.3748C70.0209 12.7404 70.0152 14.1058 70.0475 15.47C74.487 16.0911 78.2233 19.7747 78.8737 24.2161C80.0959 24.2438 81.3197 24.2386 82.5437 24.2334C83.6474 24.2287 84.7512 24.224 85.8542 24.2434C86.5085 24.263 87.1315 24.6848 87.3717 25.2981C88.4377 28.1856 89.4857 31.0801 90.5337 33.9746C91.9512 37.8897 93.3687 41.8048 94.8307 45.7024V47.1263C94.2292 51.3098 90.528 54.847 86.2331 54.8548C81.3249 55.1243 76.7233 50.5247 77.2721 45.595C78.2569 42.8113 79.2721 40.0375 80.2873 37.2638C81.5151 33.9093 82.7428 30.5549 83.9167 27.1829C80.2546 27.1634 76.5866 27.1438 72.9264 27.22C72.8932 37.9446 72.8893 48.6731 72.9284 59.3977C73.7624 59.4341 74.5988 59.4236 75.4353 59.4131C76.6184 59.3983 77.8018 59.3834 78.9792 59.5013C82.8425 60.0266 85.9499 63.7337 85.7292 67.636C85.6374 68.3235 84.9889 68.8977 84.2878 68.8724L70.0573 68.888C70.0125 70.7563 70.0195 72.627 70.0266 74.4979C70.0324 76.0534 70.0383 77.609 70.0143 79.1634C70.0104 79.6712 69.6452 80.0579 69.3112 80.3938C67.9606 81.737 66.6088 83.0786 65.2571 84.4201L55.4733 93.9993H8.6491C7.66667 93.6927 6.70964 93.1126 6.2487 92.1556C5.83738 91.4064 5.8516 90.5652 5.86569 89.7319C5.87107 89.4137 5.87643 89.0967 5.85808 88.7864C5.45685 88.7541 5.05397 88.7593 4.65096 88.7645C4.17704 88.7707 3.70294 88.7768 3.23113 88.722C1.81316 88.5247 0.610033 87.3313 0.401049 85.9134C0.338175 85.4266 0.345094 84.9369 0.352014 84.4472C0.376223 75.3513 0.356687 62.1178 0.352569 53.0217C0.355911 49.8184 0.358907 4.75116 0.354174 2.97195C0.276049 1.12234 1.95378 -0.553436 3.80339 -0.477265C11.1709 -0.483049 25.9058 -0.479235 25.9058 -0.479235L61.86 -0.395233ZM82.5944 65.9329C81.7253 66.0227 79.9772 66.0579 79.9772 66.0579C79.9772 66.0579 73.706 65.963 72.9206 65.9661C70.0111 65.9446 67.1003 65.9486 64.1893 65.9526H64.1872C61.0213 65.957 57.8552 65.9614 54.6901 65.9329C55.2858 63.8684 57.321 62.3235 59.4753 62.3372C65.5983 62.3313 71.7194 62.3294 77.8425 62.3372C79.9831 62.3333 82.0065 63.8782 82.5944 65.9329ZM9.07097 4.76102C7.28777 4.81961 5.77214 6.47586 5.86589 8.25906L5.86584 12.4656L5.86565 27.6347C5.86528 47.0108 5.86492 66.3874 5.86785 85.763C5.65388 85.7545 5.3938 85.7867 5.12091 85.8205C4.3924 85.9108 3.57265 86.0125 3.29558 85.3802C3.27634 75.0209 3.27915 64.6612 3.28196 54.3014C3.27697 50.3105 3.2726 5.14071 3.28972 2.99539C3.22331 2.57742 3.65691 2.39188 4.00652 2.45047C9.50968 2.45047 15.013 2.45031 20.5164 2.45012L22.875 2.45004L22.958 2.45004C35.5927 2.4496 48.2278 2.44917 60.862 2.45047C61.7093 2.40609 61.6439 3.20454 61.5843 3.93141C61.56 4.22828 61.5366 4.51321 61.5768 4.72391C59.8198 4.73058 58.0627 4.73583 56.3056 4.73992C49.071 4.75678 41.8358 4.75407 34.6005 4.75013L33.1534 4.74933C25.1259 4.74487 17.0982 4.74041 9.07097 4.76102ZM9.46941 91.0696C9.10613 91.1458 8.73894 90.8821 8.79949 90.4895C8.79389 64.3318 8.79186 38.1741 8.79847 12.0164L8.79949 8.2532C8.74284 7.85477 9.11003 7.61063 9.47136 7.67898C16.3887 7.6797 23.3059 7.67937 30.2229 7.67905L37.1183 7.67876C46.9194 7.67847 56.7205 7.67886 66.5221 7.68289C66.8444 7.63406 67.1374 7.91922 67.0925 8.24539C67.0933 8.76335 67.0947 9.28139 67.096 9.79951C67.1011 11.7001 67.1061 13.6017 67.0846 15.5032C62.7135 16.1673 59.0436 19.8352 58.4303 24.22C57.1842 24.241 55.9381 24.2372 54.6922 24.2334C53.6164 24.2301 52.5407 24.2269 51.4655 24.2395C50.6862 24.2493 50.0085 24.8157 49.8171 25.5598C48.9359 27.9888 48.0513 30.4165 47.1668 32.8441L47.1661 32.8459C45.6198 37.0898 44.0736 41.3334 42.5456 45.5833C42.1569 49.1634 44.5065 52.7493 47.7897 54.1302C51.3249 55.7415 55.8366 54.5989 58.1901 51.511C59.6999 49.5306 60.7331 46.6888 59.5671 44.3118C58.7577 42.0679 57.9397 39.827 57.1216 37.5862C55.8569 34.122 54.5923 30.6578 53.36 27.1829C57.03 27.1595 60.7018 27.1477 64.3698 27.2161C64.3913 37.9427 64.4108 48.6751 64.36 59.4016C63.5468 59.4276 62.7322 59.4202 61.9176 59.4127C60.7737 59.4023 59.6297 59.3918 58.4889 59.4739C54.5339 59.9231 51.278 63.7161 51.571 67.7102C51.6979 68.3821 52.3444 68.9095 53.0339 68.8763C56.3338 68.8859 59.6347 68.8839 62.9352 68.8819H62.9414C64.3174 68.881 65.6933 68.8802 67.069 68.8802C67.1131 70.9621 67.1044 73.0472 67.0956 75.1316C67.0923 75.9079 67.0891 76.6842 67.0885 77.4602C65.2771 77.4838 63.465 77.4799 61.653 77.476H61.6515H61.6501C60.0148 77.4725 58.3796 77.469 56.7448 77.4856C55.0651 77.5442 53.6022 79.0423 53.5729 80.722C53.5543 82.7735 53.5572 84.8251 53.5601 86.877C53.562 88.2672 53.564 89.6575 53.5593 91.0481C44.5584 91.0792 35.5568 91.0744 26.555 91.0696C20.8599 91.0666 15.1646 91.0636 9.46941 91.0696ZM75.8757 24.222C71.0592 24.2415 66.2428 24.2395 61.4264 24.2239C62.0514 20.8118 65.3815 18.1731 68.8483 18.345C72.1862 18.3684 75.2389 20.9583 75.8757 24.222ZM69.9675 59.3763C69.0866 59.4036 68.2038 59.3958 67.3229 59.3821C67.2956 51.0437 67.3013 42.7041 67.3071 34.3651C67.3087 31.9827 67.3103 29.6003 67.3112 27.218C68.1979 27.1927 69.0866 27.1829 69.9733 27.222C69.9733 30.1987 69.9741 33.1757 69.9748 36.1527C69.9768 43.8934 69.9787 51.6348 69.9675 59.3763ZM56.5378 44.5813C53.0339 44.5872 49.53 44.5931 46.028 44.5774C46.8698 42.2172 47.7286 39.8632 48.5875 37.509C49.4542 35.1332 50.321 32.7572 51.1706 30.3743H51.3854C52.1502 32.4995 52.9244 34.6221 53.6987 36.7448L54.0558 37.7239C54.8885 40.0076 55.7198 42.2922 56.5378 44.5813ZM85.9382 30.2805C86.0885 30.3841 86.1862 30.5266 86.235 30.7063C87.0589 32.9906 87.8899 35.2726 88.7209 37.5547L88.7214 37.556L88.7219 37.5573L88.7223 37.5586L88.7228 37.5598L88.7232 37.5611L88.7237 37.5624L88.7241 37.5637L88.7246 37.565C89.5749 39.9 90.4253 42.2353 91.2682 44.5735C88.5428 44.5933 85.8163 44.5882 83.0903 44.5831C82.3117 44.5817 81.5331 44.5802 80.7546 44.5794C81.6644 42.0322 82.5915 39.4906 83.5186 36.949L83.5202 36.9447C84.33 34.7246 85.1398 32.5045 85.9382 30.2805ZM50.3014 51.8489C48.0651 51.4934 46.1237 49.7298 45.5866 47.5266C49.3815 47.5071 53.1764 47.5071 56.9694 47.5266C56.3073 50.4114 53.2038 52.4114 50.3014 51.8489ZM85.0651 51.8587C82.8112 51.5149 80.8639 49.7415 80.3092 47.5305C83.954 47.5006 87.6005 47.5119 91.2454 47.5232L91.7194 47.5247C91.0202 50.388 87.9714 52.3938 85.0651 51.8587ZM64.9753 80.4095C62.1999 83.2825 59.3815 86.136 56.5046 88.9075C56.4836 87.2616 56.4868 85.6157 56.49 83.9703C56.4919 83.0149 56.4938 82.0597 56.4909 81.1048C56.4382 80.7942 56.5964 80.3763 56.9733 80.4153C59.195 80.399 61.4179 80.4031 63.6412 80.4072C64.0858 80.408 64.5306 80.4088 64.9753 80.4095Z" fill="#E5E5E5"/>
<path d="M17.6584 28.1451C17.9462 27.9998 18.2827 28.0356 18.5969 28.0157C25.5578 28.0237 32.5186 27.9799 39.4775 28.0118C40.7606 27.9998 41.2552 29.7591 40.42 30.5791C40.0308 31.0109 39.4045 30.995 38.8673 30.991C31.9734 30.9652 25.0774 31.0229 18.1814 30.989C16.6874 30.993 16.3206 28.6884 17.6584 28.1451Z" fill="#E5E5E5"/>
<path d="M18.1204 39.0826C23.9602 38.9498 29.8235 39.0377 35.6712 39.022C37.3606 39.0123 37.3684 41.9459 35.6653 41.9302C29.927 41.9498 24.1868 41.9576 18.4485 41.942C16.9212 41.9341 16.677 39.4654 18.1204 39.0826Z" fill="#E5E5E5"/>
<path d="M18.1423 50.4487C24.0408 50.3237 29.9568 50.4018 35.8611 50.3803C37.1638 50.2631 37.7439 52.1069 36.8591 52.9292C36.4548 53.3803 35.8005 53.2827 35.2576 53.2983C29.656 53.2671 24.0544 53.3608 18.4548 53.3042C16.906 53.3198 16.6794 50.8003 18.1423 50.4487Z" fill="#E5E5E5"/>
<path d="M17.8357 62.037C25.157 62.0072 32.4834 61.9773 39.8047 62.0251C41.2562 62.1803 41.1355 65.0248 39.6582 64.973C32.4179 64.9869 25.1759 65.0188 17.9357 64.985C16.529 64.965 16.4359 62.1823 17.8357 62.037Z" fill="#E5E5E5"/>
</svg>
