<svg width="101" height="100" viewBox="0 0 101 100" fill="none" xmlns="http://www.w3.org/2000/svg">
<path d="M45.5647 35.9394C45.5568 45.3125 45.5686 61.627 45.5608 71H48.6897C48.6858 67.877 48.6858 57.8125 48.6897 54.6895C49.7302 54.6829 50.7716 54.6877 51.8127 54.6887C52.6776 54.6896 53.3776 53.9899 53.3776 53.125C53.3776 52.2601 52.6776 51.5604 51.8127 51.5613C50.7716 51.5623 49.7302 51.5671 48.6897 51.5605C48.6858 47.3945 48.6858 43.2305 48.6897 39.0644C54.9377 39.0605 61.1877 39.0605 67.4358 39.0644C67.4299 50.957 67.4592 62.8516 67.4201 74.7422H70.5608C70.5412 62.2734 70.5725 48.4102 70.5608 35.9394C62.2287 35.9355 53.8967 35.9355 45.5647 35.9394Z" fill="#E5E5E5"/>
<path fill-rule="evenodd" clip-rule="evenodd" d="M50.0521 7.81126C52.718 6.15172 55.3841 4.49208 58.0744 2.87305C69.5217 9.92578 80.9514 17.0117 92.3752 24.0996C92.4627 31.9184 92.4284 42.9734 92.3956 53.548C92.3713 61.3795 92.3478 66.2053 92.3752 72H89.2873C89.3205 58.8965 89.3322 38.9395 89.2873 25.8359C83.9032 22.526 78.5306 19.1968 73.1582 15.8677C68.1293 12.7514 63.1006 9.63531 58.0627 6.53516C54.5601 8.68978 51.0647 10.8561 47.5692 13.0226C45.9189 14.0454 44.2685 15.0682 42.6174 16.0898C44.8147 21.6895 44.3576 28.2578 41.3361 33.4668C41.2891 33.5543 41.2383 33.6422 41.1869 33.731C40.948 34.1441 40.6981 34.5761 40.7736 35.0664C40.9418 35.9256 41.1971 36.7662 41.4522 37.6065C41.7927 38.7277 42.133 39.8483 42.2658 41.0117C42.5178 44.0488 39.2736 46.6484 36.3654 45.7266C35.1546 45.2703 33.9824 44.7159 32.81 44.1614C32.1556 43.852 31.5012 43.5425 30.84 43.25C29.978 42.7244 29.0594 42.9803 28.1431 43.2356C27.6975 43.3597 27.2524 43.4837 26.8147 43.5176C26.8127 50.8418 26.8138 64.6758 26.8177 72H23.6908C23.7025 67.1257 23.695 62.6047 23.6908 55.8211C23.688 51.3081 23.6854 47.0073 23.6877 43.7637C19.9963 43.7285 16.3049 42.7305 13.1545 40.791C7.94161 37.6289 4.27169 32.0332 3.54513 25.9688C2.69552 19.6602 5.07052 13.0312 9.71896 8.68555C14.3811 4.21875 21.258 2.21484 27.5861 3.51562C33.2502 4.59766 38.2893 8.29297 41.1916 13.252C44.1665 11.475 47.1092 9.64318 50.0521 7.81126ZM10.5178 12.4062C13.3596 8.98828 17.5725 6.75195 22.0022 6.33789C28.4592 5.62305 35.1233 8.98047 38.4084 14.582C41.7111 19.9355 41.6623 27.0937 38.34 32.4297C37.1234 34.3475 37.7923 36.4271 38.4437 38.4525C38.6833 39.1973 38.9205 39.9348 39.0608 40.6543C39.5529 41.8242 38.2561 43.1777 37.0783 42.666C36.1061 42.2528 35.1492 41.8058 34.1922 41.3589C33.2766 40.9313 32.361 40.5037 31.4318 40.1055C30.4006 39.6719 29.2365 39.7109 28.1779 40.0215C24.051 41.166 19.5119 40.6504 15.7307 38.6484C10.883 36.1348 7.38888 31.1973 6.67989 25.7773C5.98849 21.043 7.43575 16.0605 10.5178 12.4062Z" fill="#E5E5E5"/>
<path d="M48.7111 17.8418C51.8459 16.0078 54.9358 14.0996 58.0647 12.2578C61.1955 14.0898 64.2795 16.002 67.4123 17.834C67.4709 22.3047 67.424 26.7773 67.4357 31.248C61.1857 31.252 54.9377 31.252 48.6897 31.248C48.6994 26.7793 48.6584 22.3086 48.7111 17.8418ZM51.844 19.5977C51.7736 22.4375 51.8283 25.2813 51.8147 28.123C55.9807 28.127 60.1447 28.127 64.3107 28.123C64.2736 25.2852 64.3947 22.4336 64.2522 19.6055C62.2033 18.3457 60.135 17.1133 58.0627 15.8906C55.9807 17.1113 53.9338 18.3906 51.844 19.5977Z" fill="#E5E5E5"/>
<path fill-rule="evenodd" clip-rule="evenodd" d="M84.624 35.9404C81.499 35.9365 78.376 35.9365 75.2529 35.9404C75.249 44.2725 75.249 52.6045 75.2529 60.9365C78.376 60.9404 81.499 60.9404 84.624 60.9365C84.6279 52.6045 84.6279 44.2725 84.624 35.9404ZM81.499 39.0654V57.8115H78.3779V39.0654H81.499Z" fill="#E5E5E5"/>
<path d="M65.5745 70.9709C56.544 69.6451 47.4989 68.3898 38.466 67.0738C37.1396 66.7992 35.8979 67.3543 34.6853 67.6995C30.9458 68.7997 27.2135 69.9177 23.4691 71.0042C23.0819 70.2315 22.8761 69.3371 22.104 68.7429C21.3489 68.2074 20.2742 68.4094 19.4246 68.6664C15.9393 69.7176 12.4345 70.7316 8.94186 71.7691C8.17702 71.9555 7.65421 72.4556 7.25 72.9871V73.7442C10.762 81.4893 14.2256 89.2482 17.7158 97.0012C18.2314 98.0838 18.4952 99.4116 19.8966 100H20.8575C24.6842 98.8585 28.5205 97.7367 32.352 96.605C33.2016 96.3795 34.0124 95.8342 34.0463 95.0595C34.01 94.2495 33.5477 93.5062 33.2718 92.7413C33.9108 92.6216 34.5861 92.4176 35.2275 92.6412C38.7782 93.616 42.3265 94.5947 45.8821 95.5596C47.0778 95.9519 48.2783 95.4361 49.3941 95.1164C62.8637 91.1232 76.355 87.1771 89.8197 83.1741C93.2543 82.1797 95.5876 79.2044 95.21 76.2625C94.9244 73.3343 91.9158 70.7963 88.3336 70.4041C86.2158 70.0883 84.1536 70.71 82.2124 71.318C78.6472 72.3634 75.1037 73.45 71.5239 74.462C70.2968 72.6517 68.099 71.322 65.5745 70.9709ZM38.6306 70.4649C47.3973 71.7436 56.1761 72.9557 64.9404 74.2404C66.9832 74.515 68.5855 76.1507 68.3193 77.8354C68.1547 79.6614 65.848 81.0971 63.6261 80.7636C56.4452 79.7728 49.2769 78.7104 42.0976 77.7051C41.2136 77.5813 40.3796 78.1632 40.1886 79.0352C39.9833 79.9726 40.6322 80.8627 41.5825 80.996C48.7733 82.0044 55.9521 83.0798 63.1517 84.0527C67.7844 84.6646 72.342 81.503 72.4558 77.7236C76.8948 76.4331 81.3169 75.0994 85.7607 73.8207C87.6946 73.2381 90.0352 74.0697 90.8266 75.6094C91.8311 77.3471 90.4031 79.5202 88.2489 80.1301C74.9415 84.0586 61.6293 87.9753 48.3243 91.9097C47.7047 92.0626 47.0584 92.4196 46.3977 92.2039C42.7138 91.1977 39.0372 90.1778 35.3485 89.1835C34.1528 88.8265 32.9934 89.4129 31.8825 89.7071C29.5008 84.5293 27.1893 79.3299 24.8778 74.1305C28.9078 72.9224 32.9571 71.7554 36.9871 70.5473C37.5099 70.3688 38.0836 70.3727 38.6306 70.4649ZM19.6159 72.1536C22.9052 79.4103 26.1534 86.6789 29.4112 93.9455C26.8553 94.7124 24.2969 95.4694 21.7337 96.2167C18.4468 88.9618 15.218 81.6874 11.9311 74.4326C14.4749 73.6363 17.0502 72.9047 19.6159 72.1536Z" fill="#E5E5E5"/>
<path d="M29.6562 14.6348C30.2582 14.1929 30.7809 13.6428 31.3051 13.093C31.9437 12.4231 32.9595 12.3047 33.5867 12.9853C34.2205 13.6731 34.1055 14.7283 33.4402 15.3856C32.8963 15.923 32.3425 16.4516 31.8202 17.0098C31.8066 18.9629 31.8339 20.918 31.8124 22.873C31.7968 24.0879 31.246 25.2617 30.3847 26.1094C27.7773 28.7129 25.1777 31.3262 22.5644 33.9258C20.8847 35.6113 17.9003 35.6641 16.1777 34.0156C14.8945 32.7539 13.6113 31.4902 12.3652 30.1914C10.7714 28.4219 10.9042 25.4375 12.6464 23.8105C15.2206 21.2383 17.7949 18.666 20.3652 16.0918C21.2109 15.2285 22.3847 14.6758 23.6015 14.6621C25.6191 14.627 27.6406 14.6973 29.6562 14.6348ZM22.373 18.4902C19.8749 21.0078 17.3534 23.502 14.8574 26.0195C14.2089 26.6055 14.207 27.707 14.8574 28.293C15.9589 29.4063 17.0663 30.5156 18.1816 31.6172C18.7675 32.2676 19.8691 32.2637 20.457 31.6191C23.0058 29.0879 25.5351 26.5371 28.08 24.0039C29.1445 23.0137 28.6855 20.1445 28.6855 20.1445L26.5937 17.7852C26.5937 17.7852 23.4238 17.2656 22.373 18.4902Z" fill="#E5E5E5"/>
</svg>
