<svg width="100" height="100" viewBox="0 0 100 100" fill="none" xmlns="http://www.w3.org/2000/svg">
<path d="M45.3147 35.9394C45.3068 45.3125 45.3186 61.627 45.3108 71H48.4397C48.4358 67.877 48.4358 57.8125 48.4397 54.6895C49.4802 54.6829 50.5216 54.6877 51.5627 54.6887C52.4276 54.6896 53.1276 53.9899 53.1276 53.125C53.1276 52.2601 52.4276 51.5604 51.5627 51.5613C50.5216 51.5623 49.4802 51.5671 48.4397 51.5605C48.4358 47.3945 48.4358 43.2305 48.4397 39.0644C54.6877 39.0605 60.9377 39.0605 67.1858 39.0644C67.1799 50.957 67.2092 62.8516 67.1701 74.7422H70.3108C70.2912 62.2734 70.3225 48.4102 70.3108 35.9394C61.9787 35.9355 53.6467 35.9355 45.3147 35.9394Z" fill="#E5E5E5"/>
<path fill-rule="evenodd" clip-rule="evenodd" d="M49.8021 7.81126C52.468 6.15172 55.1341 4.49208 57.8244 2.87305C69.2717 9.92578 80.7014 17.0117 92.1252 24.0996C92.2127 31.9184 92.1784 42.9734 92.1456 53.548C92.1213 61.3795 92.0978 66.2053 92.1252 72H89.0373C89.0705 58.8965 89.0822 38.9395 89.0373 25.8359C83.6532 22.526 78.2806 19.1968 72.9082 15.8677C67.8793 12.7514 62.8506 9.63531 57.8127 6.53516C54.3101 8.68978 50.8147 10.8561 47.3192 13.0226C45.6689 14.0454 44.0185 15.0682 42.3674 16.0898C44.5647 21.6895 44.1076 28.2578 41.0861 33.4668C41.0391 33.5543 40.9883 33.6422 40.9369 33.731C40.698 34.1441 40.4481 34.5761 40.5236 35.0664C40.6918 35.9256 40.9471 36.7662 41.2022 37.6065C41.5427 38.7277 41.883 39.8483 42.0158 41.0117C42.2678 44.0488 39.0236 46.6484 36.1154 45.7266C34.9046 45.2703 33.7324 44.7159 32.56 44.1614C31.9056 43.852 31.2512 43.5425 30.59 43.25C29.728 42.7244 28.8094 42.9803 27.8931 43.2356C27.4475 43.3597 27.0024 43.4837 26.5647 43.5176C26.5627 50.8418 26.5638 64.6758 26.5677 72H23.4408C23.4525 67.1257 23.445 62.6047 23.4408 55.8211C23.438 51.3081 23.4354 47.0073 23.4377 43.7637C19.7463 43.7285 16.0549 42.7305 12.9045 40.791C7.69161 37.6289 4.02169 32.0332 3.29513 25.9688C2.44552 19.6602 4.82052 13.0312 9.46896 8.68555C14.1311 4.21875 21.008 2.21484 27.3361 3.51562C33.0002 4.59766 38.0393 8.29297 40.9416 13.252C43.9165 11.475 46.8592 9.64318 49.8021 7.81126ZM10.2678 12.4062C13.1096 8.98828 17.3225 6.75195 21.7522 6.33789C28.2092 5.62305 34.8733 8.98047 38.1584 14.582C41.4611 19.9355 41.4123 27.0937 38.09 32.4297C36.8734 34.3475 37.5423 36.4271 38.1937 38.4525C38.4333 39.1973 38.6705 39.9348 38.8108 40.6543C39.3029 41.8242 38.0061 43.1777 36.8283 42.666C35.8561 42.2528 34.8992 41.8058 33.9422 41.3589C33.0266 40.9313 32.111 40.5037 31.1818 40.1055C30.1506 39.6719 28.9865 39.7109 27.9279 40.0215C23.801 41.166 19.2619 40.6504 15.4807 38.6484C10.633 36.1348 7.13888 31.1973 6.42989 25.7773C5.73849 21.043 7.18575 16.0605 10.2678 12.4062Z" fill="#E5E5E5"/>
<path d="M48.4611 17.8418C51.5959 16.0078 54.6858 14.0996 57.8147 12.2578C60.9455 14.0898 64.0295 16.002 67.1623 17.834C67.2209 22.3047 67.174 26.7773 67.1857 31.248C60.9357 31.252 54.6877 31.252 48.4397 31.248C48.4494 26.7793 48.4084 22.3086 48.4611 17.8418ZM51.594 19.5977C51.5236 22.4375 51.5783 25.2813 51.5647 28.123C55.7307 28.127 59.8947 28.127 64.0607 28.123C64.0236 25.2852 64.1447 22.4336 64.0022 19.6055C61.9533 18.3457 59.885 17.1133 57.8127 15.8906C55.7307 17.1113 53.6838 18.3906 51.594 19.5977Z" fill="#E5E5E5"/>
<path fill-rule="evenodd" clip-rule="evenodd" d="M84.374 35.9404C81.249 35.9365 78.126 35.9365 75.0029 35.9404C74.999 44.2725 74.999 52.6045 75.0029 60.9365C78.126 60.9404 81.249 60.9404 84.374 60.9365C84.3779 52.6045 84.3779 44.2725 84.374 35.9404ZM81.249 39.0654V57.8115H78.1279V39.0654H81.249Z" fill="#E5E5E5"/>
<path d="M22.532 36.22V33.14C21.2813 33.0653 20.1053 32.8413 19.004 32.468C17.9027 32.076 16.9413 31.5347 16.12 30.844L17.072 28.548C17.968 29.2573 18.92 29.7893 19.928 30.144C20.9547 30.4987 22.112 30.676 23.4 30.676C24.8747 30.676 25.9667 30.396 26.676 29.836C27.404 29.276 27.768 28.5573 27.768 27.68C27.768 26.9333 27.516 26.3453 27.012 25.916C26.508 25.468 25.6587 25.1133 24.464 24.852L21.58 24.236C19.9 23.8627 18.64 23.256 17.8 22.416C16.96 21.5573 16.54 20.4187 16.54 19C16.54 17.936 16.7827 16.9933 17.268 16.172C17.772 15.3507 18.472 14.6787 19.368 14.156C20.264 13.6333 21.3187 13.3067 22.532 13.176V10.04H24.828V13.176C25.7987 13.2693 26.7413 13.512 27.656 13.904C28.5893 14.2773 29.392 14.8 30.064 15.472L29.14 17.684C28.412 16.9747 27.5907 16.452 26.676 16.116C25.7613 15.7613 24.7533 15.584 23.652 15.584C22.364 15.584 21.328 15.892 20.544 16.508C19.7787 17.124 19.396 17.9267 19.396 18.916C19.396 19.6813 19.6387 20.288 20.124 20.736C20.6093 21.184 21.384 21.5293 22.448 21.772L25.332 22.388C27.124 22.7613 28.4587 23.368 29.336 24.208C30.2133 25.0293 30.652 26.1213 30.652 27.484C30.652 29.0333 30.1107 30.3027 29.028 31.292C27.9453 32.2627 26.5453 32.8507 24.828 33.056V36.22H22.532Z" fill="#E5E5E5"/>
<path d="M65.3245 70.9709C56.294 69.6451 47.2489 68.3898 38.216 67.0738C36.8896 66.7992 35.6479 67.3543 34.4353 67.6995C30.6958 68.7997 26.9635 69.9177 23.2191 71.0042C22.8319 70.2315 22.6261 69.3371 21.854 68.7429C21.0989 68.2074 20.0242 68.4094 19.1746 68.6664C15.6893 69.7176 12.1845 70.7316 8.69186 71.7691C7.92702 71.9555 7.40421 72.4556 7 72.9871V73.7442C10.512 81.4893 13.9756 89.2482 17.4658 97.0012C17.9814 98.0838 18.2452 99.4116 19.6466 100H20.6075C24.4342 98.8585 28.2705 97.7367 32.102 96.605C32.9516 96.3795 33.7624 95.8342 33.7963 95.0595C33.76 94.2495 33.2977 93.5062 33.0218 92.7413C33.6608 92.6216 34.3361 92.4176 34.9775 92.6412C38.5282 93.616 42.0765 94.5947 45.6321 95.5596C46.8278 95.9519 48.0283 95.4361 49.1441 95.1164C62.6137 91.1232 76.105 87.1771 89.5697 83.1741C93.0043 82.1797 95.3376 79.2044 94.96 76.2625C94.6744 73.3343 91.6658 70.7963 88.0836 70.4041C85.9658 70.0883 83.9036 70.71 81.9624 71.318C78.3972 72.3634 74.8537 73.45 71.2739 74.462C70.0468 72.6517 67.849 71.322 65.3245 70.9709ZM38.3806 70.4649C47.1473 71.7436 55.9261 72.9557 64.6904 74.2404C66.7332 74.515 68.3355 76.1507 68.0693 77.8354C67.9047 79.6614 65.598 81.0971 63.3761 80.7636C56.1952 79.7728 49.0269 78.7104 41.8476 77.7051C40.9636 77.5813 40.1296 78.1632 39.9386 79.0352C39.7333 79.9726 40.3822 80.8627 41.3325 80.996C48.5233 82.0044 55.7021 83.0798 62.9017 84.0527C67.5344 84.6646 72.092 81.503 72.2058 77.7236C76.6448 76.4331 81.0669 75.0994 85.5107 73.8207C87.4446 73.2381 89.7852 74.0697 90.5766 75.6094C91.5811 77.3471 90.1531 79.5202 87.9989 80.1301C74.6915 84.0586 61.3793 87.9753 48.0743 91.9097C47.4547 92.0626 46.8084 92.4196 46.1477 92.2039C42.4638 91.1977 38.7872 90.1778 35.0985 89.1835C33.9028 88.8265 32.7434 89.4129 31.6325 89.7071C29.2508 84.5293 26.9393 79.3299 24.6278 74.1305C28.6578 72.9224 32.7071 71.7554 36.7371 70.5473C37.2599 70.3688 37.8336 70.3727 38.3806 70.4649ZM19.3659 72.1536C22.6552 79.4103 25.9034 86.6789 29.1612 93.9455C26.6053 94.7124 24.0469 95.4694 21.4837 96.2167C18.1968 88.9618 14.968 81.6874 11.6811 74.4326C14.2249 73.6363 16.8002 72.9047 19.3659 72.1536Z" fill="#E5E5E5"/>
</svg>
