<svg width="101" height="100" viewBox="0 0 101 100" fill="none" xmlns="http://www.w3.org/2000/svg">
<mask id="path-1-inside-1_2069_2556" fill="white">
<path d="M76.8138 85.2591C77.5949 86.0402 77.5978 87.3101 76.7832 88.0561C71.7697 92.6472 65.7842 96.0625 59.2626 98.0408C52.1023 100.213 44.5168 100.585 37.1781 99.1257C29.8393 97.666 22.9739 94.4188 17.1898 89.672C11.4057 84.9251 6.8816 78.825 4.01817 71.9121C1.15473 64.9991 0.0403672 57.4867 0.773783 50.0402C1.5072 42.5937 4.06576 35.443 8.22282 29.2216C12.3799 23.0001 18.0071 17.8998 24.6061 14.3726C30.6164 11.16 37.2638 9.34265 44.0553 9.04395C45.1588 8.99541 46.0547 9.89543 46.0547 11L46.0547 53.6716C46.0547 54.202 46.2654 54.7107 46.6405 55.0858L76.8138 85.2591Z"/>
</mask>
<path d="M76.8138 85.2591C77.5949 86.0402 77.5978 87.3101 76.7832 88.0561C71.7697 92.6472 65.7842 96.0625 59.2626 98.0408C52.1023 100.213 44.5168 100.585 37.1781 99.1257C29.8393 97.666 22.9739 94.4188 17.1898 89.672C11.4057 84.9251 6.8816 78.825 4.01817 71.9121C1.15473 64.9991 0.0403672 57.4867 0.773783 50.0402C1.5072 42.5937 4.06576 35.443 8.22282 29.2216C12.3799 23.0001 18.0071 17.8998 24.6061 14.3726C30.6164 11.16 37.2638 9.34265 44.0553 9.04395C45.1588 8.99541 46.0547 9.89543 46.0547 11L46.0547 53.6716C46.0547 54.202 46.2654 54.7107 46.6405 55.0858L76.8138 85.2591Z" stroke="#E5E5E5" stroke-width="6" mask="url(#path-1-inside-1_2069_2556)"/>
<path d="M52.6224 1.50053C64.7543 2.00665 76.2776 6.95199 84.8909 15.393C93.5033 23.8332 98.5389 35.1134 99.0542 46.9775C99.0641 47.2047 98.8638 47.5 98.4676 47.5L52.6852 47.5C52.3083 47.5 52.0547 47.2084 52.0547 46.9121L52.0547 2.04534C52.0547 1.73344 52.3107 1.48753 52.6224 1.50053Z" stroke="#E5E5E5" stroke-width="3"/>
<path d="M54.6561 54.5L99.0428 54.5C98.8638 60.3764 97.634 66.1751 95.4094 71.6135C93.1886 77.0428 90.0164 82.0147 86.051 86.2909L54.6561 54.5Z" stroke="#E5E5E5" stroke-width="3"/>
</svg>
