<svg width="101" height="100" viewBox="0 0 101 100" fill="none" xmlns="http://www.w3.org/2000/svg">
<g clip-path="url(#clip0_2069_2564)">
<path d="M34.5814 12.9785C35.9472 11.652 38.3434 11.6793 39.6815 13.0293C46.7529 19.5503 53.8144 26.085 60.876 32.6178C62.0889 33.6649 62.482 35.5267 61.7177 36.9372C60.9693 38.4531 59.0475 39.2815 57.4117 38.754C56.1491 38.4316 55.4225 37.2829 54.4199 36.566C54.3544 42.5088 54.418 48.4555 54.3882 54.4022C54.4299 55.8126 53.0898 57.0942 51.6525 56.9946C41.9288 56.9946 32.2031 56.9985 22.4793 56.9926C21.0579 57.061 19.7615 55.7755 19.8211 54.3826C19.8112 48.4535 19.8231 42.5244 19.8151 36.5953C18.9377 37.111 18.3758 38.0429 17.4428 38.4961C15.9697 39.3049 13.9626 38.8927 12.9244 37.5916C11.7014 36.1909 11.8781 33.872 13.2976 32.6627C20.377 26.085 27.4861 19.5386 34.5814 12.9785ZM36.8088 14.9731C29.5984 21.5391 22.4575 28.1949 15.3027 34.8253C14.5781 35.3821 15.6422 36.4624 16.2338 35.7767C22.8466 29.707 29.4138 23.5864 36.0207 17.5108C36.5825 16.9384 37.5771 16.911 38.1528 17.4795C44.7836 23.5766 51.3726 29.7206 58.0132 35.808C58.6584 36.4546 59.6253 35.304 58.8728 34.7843C51.8947 28.3004 44.8808 21.8516 37.8928 15.3755C37.6089 15.104 37.2357 14.7601 36.8088 14.9731ZM23.4739 33.1062C23.2198 33.3992 22.7255 33.6044 22.789 34.0595C22.8049 40.7251 22.7652 47.3908 22.8089 54.0544C25.489 54.0779 28.173 54.0915 30.8551 54.0466C30.9107 48.2425 30.8372 42.4345 30.8908 36.6304C30.8928 35.4388 31.9827 34.4717 33.1758 34.5108C35.8341 34.503 38.4923 34.4893 41.1486 34.5186C42.2822 34.5284 43.3046 35.4642 43.3125 36.5953C43.3562 42.4111 43.3085 48.2308 43.3363 54.0486C46.0283 54.074 48.7302 54.1091 51.4182 54.031C51.4063 47.2716 51.45 40.5083 51.3984 33.7489C46.6775 29.3319 41.9149 24.9539 37.1563 20.5798C32.5028 24.6023 28.0519 28.9587 23.4739 33.1062ZM33.8488 37.4451C33.8429 42.9561 33.8429 48.4672 33.8488 53.9763C35.9611 54.1834 38.1925 54.0349 40.3485 54.0505C40.3664 48.5141 40.3962 42.9718 40.3326 37.4373C38.1727 37.4295 36.0088 37.4119 33.8488 37.4451Z" fill="#E5E5E5"/>
<path fill-rule="evenodd" clip-rule="evenodd" d="M74.4862 37C74.4862 46.6972 70.7367 55.523 64.6015 62.1208L62.043 64.6205C55.4693 70.4544 46.7997 74 37.2978 74C16.7592 74 0.109375 57.4345 0.109375 37C0.109375 16.5655 16.7592 0 37.2978 0C57.8364 0 74.4862 16.5655 74.4862 37ZM3.38871 37C3.38871 55.6326 18.5703 70.7373 37.2978 70.7373C56.0252 70.7373 71.2069 55.6326 71.2069 37C71.2069 18.3674 56.0252 3.26272 37.2978 3.26272C18.5703 3.26272 3.38871 18.3674 3.38871 37Z" fill="#E5E5E5"/>
<path fill-rule="evenodd" clip-rule="evenodd" d="M66.5246 59.881C65.9132 60.653 65.2716 61.4002 64.6015 62.1208C64.9218 62.4396 65.2423 62.7582 65.5629 63.0767L65.5663 63.0801C66.433 63.9416 67.2997 64.803 68.1612 65.668C67.9879 65.8504 67.8136 66.0414 67.6372 66.2346C66.9938 66.9394 66.3221 67.6751 65.5719 68.1426C65.2583 67.832 64.9433 67.5225 64.6282 67.213C63.7575 66.3575 62.8864 65.5017 62.043 64.6205C61.3031 65.2771 60.5366 65.9048 59.7453 66.5017C60.3746 67.0949 60.9841 67.7091 61.5938 68.3234C62.1503 68.8841 62.707 69.445 63.279 69.9902C63.3136 70.0277 63.3533 70.0658 63.3941 70.1051C63.5874 70.2909 63.8057 70.5009 63.6226 70.7734C62.9374 72.4238 63.3261 74.4414 64.6198 75.6895C70.4415 81.4981 76.2735 87.2987 82.1053 93.0992L82.1126 93.1065C83.9358 94.9199 85.759 96.7333 87.5818 98.5469C88.2807 99.291 89.2269 99.707 90.1888 100H91.6807C92.6328 99.6953 93.577 99.2852 94.2759 98.5469C94.8206 97.9995 95.3701 97.4561 95.9197 96.9126C96.9448 95.899 97.9702 94.885 98.9657 93.8438C100.579 92.1348 100.462 89.2188 98.7635 87.6094C91.0859 79.9512 83.3966 72.3047 75.7033 64.6621C74.3566 63.2578 72.1796 63.0098 70.4324 63.7559C69.328 62.7273 68.2666 61.6494 67.2061 60.5722C66.979 60.3416 66.752 60.111 66.5246 59.881ZM70.9311 67.1133C71.2962 66.7461 71.7065 66.3457 72.2483 66.2832C72.849 66.1738 73.4202 66.502 73.8246 66.9199C77.4773 70.5588 81.1332 74.195 84.789 77.8311C88.7249 81.7458 92.6607 85.6604 96.5923 89.5781C97.2912 90.1777 97.3815 91.332 96.7003 91.9785C95.1789 93.5215 93.6418 95.0469 92.0989 96.5664C91.4432 97.2578 90.2732 97.1836 89.6548 96.4785L86.3882 93.2293C79.8541 86.7303 73.3197 80.2308 66.791 73.7285C66.0941 73.1191 66.0254 71.9609 66.7164 71.3242C67.4953 70.5295 68.2859 69.7459 69.0765 68.9623L69.0773 68.9616C69.6971 68.3472 70.3169 67.7329 70.9311 67.1133Z" fill="#E5E5E5"/>
<circle cx="37.1094" cy="37" r="31" stroke="#E5E5E5" stroke-width="2"/>
</g>
<defs>
<clipPath id="clip0_2069_2564">
<rect width="100" height="100" fill="white" transform="translate(0.109375)"/>
</clipPath>
</defs>
</svg>
