<svg width="90" height="100" viewBox="0 0 90 100" fill="none" xmlns="http://www.w3.org/2000/svg">
<g clip-path="url(#clip0_2069_1023)">
<path fill-rule="evenodd" clip-rule="evenodd" d="M65.333 0.0902157C66.7104 0.392033 67.8555 1.56623 68.0879 2.95955C68.1599 3.44088 68.1546 3.92624 68.1493 4.4118C68.1453 4.77916 68.1413 5.14664 68.1708 5.51259C68.5859 5.54926 69.0038 5.54196 69.4216 5.53465C70.0165 5.52424 70.6113 5.51384 71.1974 5.63042C72.7574 5.96325 73.9834 7.42892 74 9.02483L73.9978 35.7934C73.9977 36.6421 73.3097 37.3301 72.461 37.3301C71.6121 37.3301 70.9241 36.6419 70.9241 35.7931C70.9241 27.4889 70.9163 19.1847 70.8942 10.8806C70.8928 10.3322 70.8913 9.78391 70.8904 9.23569C70.9381 8.89046 70.627 8.58864 70.2847 8.64033C59.8743 8.63606 49.4644 8.63564 39.0545 8.63596L31.7309 8.63626C24.3842 8.6366 17.0374 8.63694 9.69039 8.63619C9.30662 8.56384 8.91663 8.82224 8.97679 9.24396L8.97571 13.227C8.96869 40.9131 8.97085 68.5991 8.97679 96.2852C8.91248 96.7007 9.30247 96.9798 9.68832 96.8991C15.7373 96.8927 21.7863 96.8959 27.8351 96.8992C37.3961 96.9042 46.9568 96.9093 56.5167 96.8764C56.5217 95.4053 56.5196 93.9345 56.5175 92.4639V92.4616C56.5145 90.2897 56.5114 88.1183 56.5312 85.9469C56.5623 84.1691 58.116 82.5835 59.9001 82.5215C63.5613 82.4843 67.2242 82.5422 70.8863 82.4946C70.8871 81.2559 70.8881 80.0171 70.8891 78.7783C70.8898 77.9214 71.5847 77.2271 72.4416 77.2271C73.2992 77.2271 73.9943 77.9223 73.9942 78.7798L73.9938 84.2972C73.9896 84.8347 73.6017 85.244 73.247 85.5996C71.8125 87.0212 70.3767 88.4412 68.941 89.8611L58.5496 100H8.81705C7.77361 99.6754 6.75714 99.0615 6.26757 98.0485C5.8307 97.2556 5.8458 96.3653 5.86077 95.4832C5.86648 95.1465 5.87217 94.811 5.85268 94.4825C5.42653 94.4483 4.99863 94.4539 4.57058 94.4594C4.06723 94.4659 3.56369 94.4724 3.06257 94.4143C1.55653 94.2055 0.278673 92.9425 0.0567087 91.4416C-0.0100703 90.9265 -0.00272114 90.4081 0.00462801 89.8897C0.0303407 80.2625 0.00959127 66.2557 0.00521803 56.6282C0.00876777 53.2377 0.0119498 5.5373 0.00692225 3.65414C-0.0760552 1.69646 1.70589 -0.077231 3.67038 0.00339145C11.4955 -0.00273104 27.1456 0.00130554 27.1456 0.00130554L65.333 0.0902157ZM9.26513 5.54773C7.37117 5.60975 5.76141 7.36277 5.86098 9.25016L5.86093 13.7024L5.86072 29.7578C5.86033 50.266 5.85995 70.7748 5.86306 91.2824C5.63581 91.2734 5.35956 91.3076 5.06972 91.3434C4.29597 91.4389 3.4253 91.5465 3.13102 90.8773C3.11059 79.9128 3.11357 68.9477 3.11656 57.9827C3.11126 53.7586 3.10661 5.94961 3.1248 3.67895C3.05427 3.23656 3.51479 3.04017 3.88612 3.10219C9.73109 3.10219 15.5762 3.10201 21.4215 3.10182L23.9266 3.10173L24.0147 3.10173C37.4342 3.10127 50.8541 3.10081 64.273 3.10219C65.1729 3.05522 65.1034 3.90032 65.0401 4.66966C65.0143 4.98387 64.9895 5.28545 65.0322 5.50846C63.1661 5.51551 61.2999 5.52107 59.4336 5.5254C51.7497 5.54325 44.065 5.54038 36.3803 5.53621L34.8433 5.53536C26.3172 5.53065 17.791 5.52593 9.26513 5.54773ZM68.6417 85.6161C65.694 88.6571 62.7005 91.6773 59.6449 94.6107C59.6226 92.8686 59.626 91.1266 59.6295 89.385C59.6314 88.3738 59.6334 87.3628 59.6304 86.3521C59.5744 86.0234 59.7424 85.581 60.1428 85.6223C62.5024 85.6051 64.8635 85.6094 67.2248 85.6137L67.3337 85.6139C67.7697 85.6147 68.2057 85.6155 68.6417 85.6161Z" fill="#E5E5E5"/>
<path d="M17.9297 30.1451C18.2535 29.9998 18.632 30.0356 18.9855 30.0157C26.8165 30.0237 34.6474 29.9799 42.4761 30.0118C43.9196 29.9998 44.476 31.7591 43.5365 32.5791C43.0987 33.0109 42.394 32.995 41.7897 32.991C34.034 32.9652 26.276 33.0229 18.518 32.989C16.8373 32.993 16.4246 30.6884 17.9297 30.1451Z" fill="#E5E5E5"/>
<path d="M17.9224 42.0762C23.5318 41.9408 29.1638 42.0304 34.7808 42.0145C36.4036 42.0045 36.4111 44.9955 34.7752 44.9796C29.2632 44.9995 23.7495 45.0075 18.2375 44.9915C16.7705 44.9836 16.5359 42.4665 17.9224 42.0762Z" fill="#E5E5E5"/>
<path d="M17.8297 53.1C22.8128 52.9304 27.8106 53.0364 32.7986 53.0072C33.8992 52.8482 34.3892 55.3501 33.6418 56.4659C33.3002 57.0781 32.7475 56.9456 32.2888 56.9668C27.5565 56.9244 22.8243 57.0516 18.0937 56.9748C16.7853 56.996 16.5939 53.5771 17.8297 53.1Z" fill="#E5E5E5"/>
<path d="M17.7109 66.037C22.8968 66.0072 28.0864 65.9773 33.2723 66.0251C34.3004 66.1803 34.215 69.0248 33.1685 68.973C28.04 68.9869 22.9103 69.0188 17.7818 68.985C16.7854 68.965 16.7194 66.1823 17.7109 66.037Z" fill="#E5E5E5"/>
<path fill-rule="evenodd" clip-rule="evenodd" d="M77.0856 37.2798C77.57 36.8594 78.407 36.9022 78.7514 37.4801C79.3457 38.4796 79.9038 39.4999 80.495 40.5014C83.1575 39.5103 86.3749 40.4044 88.0853 42.6996C88.968 44.0152 89.7853 45.4351 90 47.0344L90 48.4408C89.7013 50.5356 88.4898 52.5074 86.6322 53.5486C81.0136 56.4698 77.49 58.2623 71.8755 61.1918C72.1524 62.4781 71.8766 63.874 71.0769 64.9215C72.2292 66.9913 73.4469 69.0247 74.592 71.0977C75.011 71.8843 74.1885 72.8222 73.365 72.6469C72.4992 72.4265 71.6391 72.1813 70.7755 71.949C70.2567 71.8095 69.7251 72.1136 69.5859 72.6325C69.3504 73.5098 69.1335 74.3928 68.8821 75.2655C68.7867 75.6244 68.4703 75.8581 68.1467 76L67.6032 76C67.2744 75.8915 66.9944 75.6672 66.8305 75.3594C65.2539 72.6219 63.694 69.8749 62.1101 67.1426C58.2019 69.6538 54.3238 72.216 50.4166 74.7293C47.5072 76.4695 43.3926 75.446 41.6106 72.5551C39.0609 68.5741 39.2293 65.7826 41.0132 63.8473C41.5977 63.2132 42.3557 62.671 43.2484 62.209C45.6029 60.9904 51.9817 57.8672 54.2766 56.7717C50.776 57.9845 45.8751 59.7059 42.4912 60.9188C42.7975 61.477 42.9302 61.6567 43.2484 62.209C42.3557 62.671 41.5977 63.2132 41.0132 63.8473C40.1543 62.3492 40.0281 62.2671 39.1659 60.7713C38.7686 60.1683 39.1254 59.3035 39.8048 59.1125C47.0197 56.7245 50.9912 55.4997 58.205 53.1095C58.0105 51.3339 59.1997 50.0131 61.0024 49.3892C61.9815 48.9667 63.083 49.0481 64.0871 49.3298C69.1362 44.9637 72.0417 41.6511 77.0856 37.2798ZM78.5523 41.5802C78.2245 40.9876 77.8864 40.4002 77.541 39.8191C76.6079 40.6311 75.6736 41.4421 74.7392 42.2532C74.5705 42.3996 74.4014 42.5464 74.2327 42.6928C71.7019 44.8899 71.2939 46.008 68.7867 48.2291C72.0252 46.1532 73.1257 45.1273 76.3468 43.0215C77.082 42.5409 77.817 42.0603 78.5523 41.5802ZM87.7275 47.0229C87.6033 46.1672 87.1568 45.4251 86.7176 44.695C86.6395 44.5652 86.5617 44.4358 86.4859 44.3063C85.2869 42.3626 82.4626 41.7106 80.5458 42.9521C78.6512 44.1838 76.7546 45.4142 74.8588 46.6441C71.4992 48.8237 70.2611 49.9228 66.9083 52.1122C68.2442 54.4606 69.5853 56.8069 70.942 59.1438C75.7889 56.658 80.6237 54.1475 85.4674 51.6551C87.0917 50.7871 88.048 48.8487 87.7275 47.0229ZM64.5237 52.4272C64.2074 51.8305 63.5892 51.4382 62.9337 51.3339C61.7959 51.119 60.6186 51.9651 60.434 53.1095C60.3168 53.6771 60.4672 54.2644 60.7566 54.7558C61.4282 55.9263 62.0992 57.0974 62.7701 58.2685C62.8308 58.3744 62.892 58.4811 62.9527 58.5871C63.8642 60.1781 64.7759 61.769 65.6896 63.3587C66.2621 64.3341 67.6312 64.718 68.6104 64.1422C69.6621 63.6164 70.1081 62.1912 69.5376 61.1563C68.4445 59.2387 67.3429 57.3256 66.2413 55.4126C65.6683 54.4177 65.0954 53.4228 64.5237 52.4272ZM49.4447 72.7147C54.0686 69.7028 58.707 66.7107 63.3216 63.6831C61.9297 61.2899 60.5979 58.8162 59.1437 56.4866C54.2532 59.0093 49.3648 61.5392 44.4754 64.067C43.0192 64.8516 42.1095 66.5156 42.1946 68.1702C42.2381 69.491 42.987 70.6407 43.711 71.6913C45.0158 73.4242 47.6265 73.8811 49.4447 72.7147ZM71.2864 69.7852C70.6298 68.6209 69.965 67.4608 69.2928 66.307C67.7443 66.959 65.8783 66.6565 64.6285 65.5245C64.4496 65.6251 64.2763 65.7355 64.1029 65.8459C64.082 65.8592 64.0612 65.8725 64.0403 65.8857C64.0224 65.8971 64.0044 65.9085 63.9865 65.9199C65.1181 67.9585 66.2901 69.9793 67.4694 71.9918C67.5514 71.7028 67.6267 71.4121 67.7019 71.1216C67.8001 70.7427 67.8981 70.364 68.0108 69.9897C68.1716 69.4556 68.7566 69.1238 69.296 69.2375C69.6369 69.3246 69.9759 69.421 70.3149 69.5174C70.6378 69.6093 70.961 69.7012 71.2864 69.7852Z" fill="#E5E5E5"/>
</g>
<defs>
<clipPath id="clip0_2069_1023">
<rect width="90" height="100" fill="white"/>
</clipPath>
</defs>
</svg>
