<svg width="101" height="100" viewBox="0 0 101 100" fill="none" xmlns="http://www.w3.org/2000/svg">
<path fill-rule="evenodd" clip-rule="evenodd" d="M71.8361 5.96281C70.9186 5.86351 70.0072 6.6214 70.0354 7.56977C70.0242 8.73362 70.0253 9.89745 70.0265 11.0613C70.0268 11.4114 70.0271 11.7616 70.0271 12.1117C70.0301 13.5341 70.033 14.9564 70.0213 16.3787C64.0606 11.1005 58.1288 5.78948 52.168 0.511156C51.232 -0.178037 49.8266 -0.163115 49.085 0.512444C38.2833 9.63174 27.8664 19.2229 17.4535 28.8104C12.1361 33.7062 6.81987 38.6011 1.45397 43.4316C0.673626 43.9687 0.359069 45.1622 1.04867 45.8998C2.62952 47.5534 4.2749 49.1503 5.87793 50.7815C6.40622 51.3874 7.37812 51.5658 8.02942 51.0531C8.70055 50.5089 9.34114 49.9274 9.98188 49.3458C10.6271 48.7602 11.2724 48.1744 11.9493 47.6264C11.959 55.7597 11.957 63.8939 11.9551 72.0282V72.0302C11.9529 80.816 11.9508 89.6019 11.9634 98.3866C11.9372 99.333 12.8446 100.089 13.762 99.9916L71.668 99.9916C73.3878 99.5927 73.3878 97.144 71.668 96.7452L15.1856 96.7452L15.1916 44.6961L50.67 13.0148L86.1484 44.6961L86.1513 74.1295C86.1514 75.0221 86.8749 75.7456 87.7675 75.7456C88.6601 75.7456 89.3837 75.0235 89.3837 74.1309C89.3835 66.3625 89.3847 54.8079 89.3907 47.6264C90.7054 48.6882 91.9032 49.8879 93.1997 50.972C93.8046 51.5192 94.7947 51.4645 95.3552 50.8788C96.9784 49.2658 98.5956 47.6426 100.201 46.0093C100.868 45.373 100.81 44.2118 100.096 43.6343C96.5388 40.3839 92.9356 37.1821 89.3867 33.9216L89.3847 7.78052C89.4815 6.86052 88.7294 5.9466 87.7877 5.97294C84.7493 5.96136 81.7108 5.96302 78.6724 5.96467C76.3936 5.96591 74.1148 5.96715 71.8361 5.96281ZM51.8093 9.67727C51.1943 9.06528 50.1457 9.05718 49.5348 9.6793C47.5173 11.4791 41.807 16.5774 35.1747 22.499C24.1299 32.3601 7.1664 47.4987 7.1664 47.4987L4.65398 44.8968C4.65398 44.8968 19.0352 31.8988 26.2238 25.397L26.2297 25.3917L26.2414 25.3811C34.3825 18.0177 42.5239 10.6542 50.672 3.29804C66.0291 17.1429 81.3482 31.0304 96.686 44.8968L94.1736 47.4987C94.1736 47.4987 57.7697 14.9912 51.8093 9.67727ZM73.2556 19.3312C73.2516 15.9572 73.2516 12.5852 73.2576 9.21119C77.5566 9.20511 81.8555 9.20511 86.1544 9.21119L86.1524 30.9731L73.2556 19.3312Z" fill="#E5E5E5"/>
<path fill-rule="evenodd" clip-rule="evenodd" d="M86.9822 99.9922C87.8354 100.082 88.6791 99.3829 88.6547 98.5075C88.6772 82.8564 88.6492 98.814 88.668 83.1629C83.7461 79.2262 79.2469 75.5269 74.5097 71.7737C73.7147 71.1438 72.7191 71.6912 72.151 72.3473C69.8541 70.0866 67.5741 67.807 65.3128 65.5106C65.9634 64.9426 66.5184 63.9416 65.8866 63.1505C64.3603 61.4934 62.6878 59.9712 61.139 58.3365C59.8397 56.9343 59.8472 54.5685 61.1353 53.1645C62.9184 51.2899 65.2284 49.9308 67.7278 49.2597C69.5053 48.7104 71.3372 48.3167 73.0772 47.6587C75.331 46.6746 75.8822 43.3359 74.0316 41.6994C72.1697 40.1809 69.6066 39.8885 67.2834 40.0328C61.0397 40.3084 54.7116 41.8193 49.3678 45.1486C45.7847 47.3401 43.064 50.5888 40.0678 53.47C38.5321 54.6323 39.3721 56.7487 39.1659 58.3759C39.4321 60.4473 37.7315 62.5225 35.609 62.4963C34.3884 62.6556 32.8453 62.0614 31.9134 63.1243C29.984 65.072 28.0302 66.9953 26.1046 68.9468C25.5215 69.4979 25.5234 70.499 26.1046 71.0501C29.564 74.5312 33.044 77.9918 36.5109 81.4636C37.0621 82.1065 38.1253 82.1815 38.714 81.5517C40.6659 79.6283 42.5859 77.6712 44.5359 75.7441C45.5634 74.8724 45.0347 73.4046 45.1603 72.2461C45.0703 70.4277 46.5215 68.7125 48.3365 68.525C50.489 68.3619 52.6753 69.198 54.224 70.6883C55.0172 71.3857 55.6509 72.2724 56.5359 72.8554C57.3347 73.2846 58.1372 72.7148 58.6734 72.1486C60.9684 74.4094 63.2503 76.6889 65.5097 78.9853C64.7991 79.5721 64.3022 80.6612 65.0128 81.4504C69.3159 86.6356 73.6322 91.8114 77.956 96.9778L80.9344 99.9922H86.9822ZM71.716 44.9781C72.2035 44.8506 72.3347 44.0989 71.8978 43.8289C70.1503 42.7979 68.0391 42.9703 66.0947 43.0997C59.1178 43.6321 51.9459 45.8835 46.8815 50.9093C45.3047 52.4634 43.7522 54.0418 42.1772 55.5977C42.0628 57.403 42.4078 59.2719 41.8059 61.0191C41.0653 63.2611 39.0346 64.9801 36.7115 65.385C38.5265 67.2746 40.3828 69.1343 42.2765 70.9451C42.7265 68.2438 45.0047 65.9868 47.7197 65.5875C51.2634 65.1076 54.809 66.7535 57.164 69.3573C58.9659 67.5896 60.7547 65.8031 62.5228 63.9997C61.3209 62.7268 60.0272 61.544 58.8365 60.2599C56.7197 57.8885 56.6053 54.0287 58.5947 51.5448C59.9672 49.8877 61.7522 48.6017 63.6572 47.6231C66.1959 46.3353 69.0328 45.8647 71.716 44.9781ZM37.6603 78.3592C38.9634 77.0863 40.2534 75.8022 41.5228 74.4975C38.7534 71.6931 35.9653 68.9074 33.1621 66.1386C31.8571 67.4059 30.5709 68.6956 29.3015 69.9984C32.0709 72.801 34.8553 75.5904 37.6603 78.3592ZM67.6603 76.8595C68.4647 76.0872 69.2541 75.3036 70.0228 74.4975C67.7541 72.1936 65.4666 69.9066 63.1622 67.6383C62.3559 68.405 61.5703 69.1942 60.8015 69.9984C63.0703 72.3023 65.3559 74.5912 67.6603 76.8595ZM86.1642 96.9891C86.1642 96.9891 86.1661 88.4933 86.168 84.2455C82.2417 81.1486 77.761 78.1099 73.831 75.0168C71.8828 76.7808 70.1128 78.736 68.2078 80.5469C72.6816 86.0395 77.2312 91.5583 81.7781 96.9891C81.7687 96.9778 86.1642 96.9891 86.1642 96.9891Z" fill="#E5E5E5"/>
</svg>
