<svg width="91" height="100" viewBox="0 0 91 100" fill="none" xmlns="http://www.w3.org/2000/svg">
<g clip-path="url(#clip0_2069_2761)">
<path fill-rule="evenodd" clip-rule="evenodd" d="M65.665 0.0902157C67.0425 0.392033 68.1876 1.56623 68.4199 2.95955C68.4919 3.44088 68.4867 3.92624 68.4814 4.4118C68.4774 4.77916 68.4734 5.14664 68.5029 5.51259C68.9179 5.54926 69.3358 5.54196 69.7536 5.53465C70.3486 5.52424 70.9433 5.51384 71.5295 5.63042C73.0894 5.96325 74.3154 7.42892 74.332 9.02483L74.3298 35.7934C74.3298 36.6421 73.6417 37.3301 72.793 37.3301C71.9442 37.3301 71.2561 36.6419 71.2561 35.7931C71.2561 27.4889 71.2484 19.1847 71.2263 10.8806C71.2248 10.3322 71.2234 9.78391 71.2225 9.23569C71.2702 8.89046 70.959 8.58864 70.6167 8.64033C60.2063 8.63606 49.7964 8.63564 39.3865 8.63596L32.0629 8.63626C24.7162 8.6366 17.3694 8.63694 10.0224 8.63619C9.63865 8.56384 9.24866 8.82224 9.30882 9.24396L9.30774 13.227C9.30072 40.9131 9.30288 68.5991 9.30882 96.2852C9.24451 96.7007 9.6345 96.9798 10.0203 96.8991C16.0693 96.8927 22.1183 96.8959 28.1671 96.8992C37.7281 96.9042 47.2888 96.9093 56.8487 96.8764C56.8537 95.4053 56.8516 93.9345 56.8496 92.4639V92.4616C56.8465 90.2897 56.8434 88.1183 56.8632 85.9469C56.8943 84.1691 58.4481 82.5835 60.2321 82.5215C63.8933 82.4843 67.5563 82.5422 71.2183 82.4946C71.2191 81.2559 71.2201 80.0171 71.2211 78.7783C71.2218 77.9214 71.9167 77.2271 72.7737 77.2271C73.6312 77.2271 74.3263 77.9223 74.3263 78.7798L74.3258 84.2972C74.3217 84.8347 73.9337 85.244 73.579 85.5996C72.1445 87.0212 70.7087 88.4412 69.2731 89.8611L58.8816 100H9.14909C8.10564 99.6754 7.08917 99.0615 6.5996 98.0485C6.16273 97.2556 6.17784 96.3653 6.1928 95.4832C6.19851 95.1465 6.2042 94.811 6.18472 94.4825C5.75857 94.4483 5.33066 94.4539 4.90262 94.4594C4.39927 94.4659 3.89572 94.4724 3.3946 94.4143C1.88856 94.2055 0.610705 92.9425 0.38874 91.4416C0.321961 90.9265 0.32931 90.4081 0.336659 89.8897C0.362372 80.2625 0.341623 66.2557 0.337249 56.6282C0.340799 53.2377 0.343981 5.5373 0.338954 3.65414C0.255976 1.69646 2.03792 -0.077231 4.00241 0.00339145C11.8275 -0.00273104 27.4777 0.00130554 27.4777 0.00130554L65.665 0.0902157ZM9.59717 5.54773C7.7032 5.60975 6.09344 7.36277 6.19301 9.25016L6.19296 13.7024L6.19275 29.7578C6.19237 50.266 6.19198 70.7748 6.19509 91.2824C5.96784 91.2734 5.6916 91.3076 5.40176 91.3434C4.628 91.4389 3.75734 91.5465 3.46306 90.8773C3.44262 79.9128 3.44561 68.9477 3.44859 57.9827C3.44329 53.7586 3.43865 5.94961 3.45683 3.67895C3.3863 3.23656 3.84683 3.04017 4.21815 3.10219C10.0631 3.10219 15.9083 3.10201 21.7535 3.10182L24.2586 3.10173L24.3467 3.10173C37.7662 3.10127 51.1861 3.10081 64.605 3.10219C65.5049 3.05522 65.4354 3.90032 65.3722 4.66966C65.3463 4.98387 65.3215 5.28545 65.3643 5.50846C63.4981 5.51551 61.6319 5.52107 59.7657 5.5254C52.0817 5.54325 44.3971 5.54038 36.7123 5.53621L35.1753 5.53536C26.6493 5.53065 18.123 5.52593 9.59717 5.54773ZM68.9738 85.6161C66.026 88.6571 63.0326 91.6773 59.9769 94.6107C59.9546 92.8686 59.9581 91.1266 59.9615 89.385C59.9635 88.3738 59.9655 87.3628 59.9624 86.3521C59.9064 86.0234 60.0744 85.581 60.4748 85.6223C62.8344 85.6051 65.1955 85.6094 67.5568 85.6137L67.6657 85.6139C68.1017 85.6147 68.5377 85.6155 68.9738 85.6161Z" fill="#E5E5E5"/>
<path d="M18.2617 30.1451C18.5855 29.9998 18.9641 30.0356 19.3175 30.0157C27.1485 30.0237 34.9795 29.9799 42.8081 30.0118C44.2517 29.9998 44.8081 31.7591 43.8685 32.5791C43.4307 33.0109 42.7261 32.995 42.1217 32.991C34.366 32.9652 26.608 33.0229 18.85 32.989C17.1694 32.993 16.7566 30.6884 18.2617 30.1451Z" fill="#E5E5E5"/>
<path d="M18.2544 42.0762C23.8639 41.9408 29.4958 42.0304 35.1128 42.0145C36.7356 42.0045 36.7431 44.9955 35.1072 44.9796C29.5953 44.9995 24.0815 45.0075 18.5696 44.9915C17.1025 44.9836 16.868 42.4665 18.2544 42.0762Z" fill="#E5E5E5"/>
<path d="M18.1618 53.1C23.1448 52.9304 28.1427 53.0364 33.1307 53.0072C34.2312 52.8482 34.7213 55.3501 33.9738 56.4659C33.6323 57.0781 33.0795 56.9456 32.6208 56.9668C27.8886 56.9244 23.1563 57.0516 18.4258 56.9748C17.1173 56.996 16.9259 53.5771 18.1618 53.1Z" fill="#E5E5E5"/>
<path d="M18.043 66.037C23.2289 66.0072 28.4184 65.9773 33.6043 66.0251C34.6325 66.1803 34.547 69.0248 33.5005 68.973C28.372 68.9869 23.2423 69.0188 18.1138 68.985C17.1174 68.965 17.0515 66.1823 18.043 66.037Z" fill="#E5E5E5"/>
<path fill-rule="evenodd" clip-rule="evenodd" d="M85.2168 37.4787C84.1282 36.6223 82.4805 36.9773 81.6757 38.0491C74.968 46.0933 66.0003 56.8379 59.2319 64.8314C59.0032 65.0877 58.7956 65.3764 58.7279 65.7215C58.3176 67.3504 57.9011 68.9776 57.4847 70.6045L57.4843 70.6062L57.4839 70.6078C57.3374 71.1801 57.191 71.7523 57.0448 72.3245L57.0025 72.2734C56.2689 71.3894 55.4037 70.3468 54.1363 70.4089C52.8896 70.482 52.0049 71.3992 51.1772 72.2575C51.031 72.4091 50.8865 72.559 50.7421 72.7019C50.5283 71.9939 50.3425 71.2772 50.1567 70.5606C49.9595 69.8004 49.7624 69.0403 49.532 68.2906C49.2652 67.5793 48.2119 67.4131 47.7573 68.0342C47.1919 68.7882 46.6417 69.5535 46.0916 70.3188C45.5811 71.0289 45.0706 71.739 44.548 72.44C44.0439 73.0217 43.4735 73.6513 42.6843 73.809C42.0871 73.9009 41.4815 73.887 40.8765 73.8732C40.2485 73.8588 39.6211 73.8444 39.0048 73.9485C37.9487 74.2555 38.2014 75.9936 39.307 75.9781C39.7337 75.9625 40.1698 75.9738 40.6082 75.9852C41.8772 76.018 43.1655 76.0513 44.3009 75.4358C45.5649 74.7209 46.3911 73.5472 47.2111 72.3823C47.5059 71.9636 47.7999 71.546 48.1131 71.1512C48.3147 71.8407 48.4965 72.5358 48.6782 73.2309C48.8529 73.8988 49.0277 74.5669 49.22 75.2302C49.3923 75.9485 50.399 76.2344 50.9242 75.7147C51.2484 75.3779 51.5544 75.0204 51.8606 74.6626C52.492 73.925 53.1245 73.186 53.9203 72.6245C54.1928 72.3738 54.5105 72.6428 54.7011 72.8541C55.238 73.4283 55.6621 74.0818 56.0869 74.7363C56.2681 75.0154 56.4494 75.2948 56.6396 75.5682C56.939 75.9978 57.5503 76.0879 58.0021 75.8541C59.7514 75.0597 64.5882 72.8644 66.3395 72.0752C66.7579 71.9086 67.0361 71.5616 67.3103 71.2194C67.3979 71.1101 67.4851 71.0014 67.5763 70.8991C74.9834 62.0918 82.3776 53.2738 89.7674 44.4521C90.6018 43.4929 90.5016 41.8943 89.5316 41.0647C88.1084 39.852 86.664 38.6618 85.2168 37.4787ZM65.9653 69.5075C72.1269 62.1919 78.2914 54.872 84.4078 47.5183C83.233 46.4936 82.0291 45.4997 80.826 44.5066C80.4863 44.2261 80.1467 43.9457 79.8078 43.6647C74.1393 49.9704 68.7328 56.5924 63.361 63.172L63.36 63.1731C62.6811 64.0047 62.0027 64.8357 61.3244 65.6652L61.4144 65.7418C62.9123 67.0166 64.4164 68.2966 65.9653 69.5075ZM85.7858 45.8817L81.1632 42.014L83.7075 39.0071L88.4197 42.9684L85.7858 45.8817ZM59.0667 73.0329L60.4123 67.7202L64.0127 70.8118C62.3644 71.5524 60.7291 72.3242 59.0667 73.0329Z" fill="#E5E5E5"/>
</g>
<defs>
<clipPath id="clip0_2069_2761">
<rect width="90" height="100" fill="white" transform="translate(0.332031)"/>
</clipPath>
</defs>
</svg>
