<svg width="86" height="88" viewBox="0 0 86 88" fill="none" xmlns="http://www.w3.org/2000/svg">
<path fill-rule="evenodd" clip-rule="evenodd" d="M52.3095 0H53.813C54.8761 0.283594 55.927 0.702969 56.7247 1.485C65.7293 9.85882 74.623 18.3594 83.7083 26.6458C84.7731 26.9431 85.8032 27.8489 85.6072 29.0469C85.2136 31.1902 84.6985 33.3111 84.2737 35.4475C84.1419 36.1625 83.8991 36.9359 83.2505 37.3553C82.4337 37.9328 81.3863 37.6991 80.4533 37.7764C80.4307 41.403 77.4325 44.0312 77.4533 47.6578C80.3095 48.1769 82.9419 50.0108 84.1385 52.6714C85.3333 55.1842 85.2831 58.302 83.8194 60.698C81.8928 64.2266 77.3423 66.0708 73.4838 64.7766C71.2901 64.0495 69.3547 62.4872 68.309 60.4281C66.6564 57.4891 67.0812 53.6133 69.1709 50.9939C70.534 49.2047 72.6236 48.0858 74.8191 47.663C74.8503 44.0364 77.8538 41.4047 77.8174 37.7764C76.9138 37.6973 75.9098 37.9259 75.1034 37.4C74.4877 37.0425 74.1825 36.3584 74.0525 35.6898C73.6189 33.6084 73.1646 31.5305 72.731 29.4491C72.6027 28.9214 72.7258 28.3886 72.8177 27.8678C66.6354 22.8388 60.4098 17.8561 54.1911 12.8734C54.0055 12.9577 53.8512 13.09 53.7003 13.2223C43.3733 22.4813 33.0013 31.6955 22.6864 40.9681C23.0957 42.3517 23.1217 43.7938 23.1113 45.2255C25.1594 45.2839 27.2126 45.2375 29.2624 45.2495C29.6214 45.2839 30.0376 45.1052 30.0012 44.6875C30.048 42.0561 29.9751 39.4195 30.0341 36.7881C30.1087 35.2498 31.5186 33.9436 33.0706 33.9556C39.5998 33.9367 46.1306 33.9419 52.6598 33.9522C54.2136 33.9178 55.6686 34.8734 56.305 36.2639C57.5935 38.8833 58.8872 41.5009 60.1705 44.122C60.4982 44.7769 60.6838 45.497 60.656 46.2309C60.6508 51.5058 60.6647 56.7823 60.6491 62.0572C60.6647 63.7931 59.3086 65.4053 57.5883 65.7181C56.383 65.9123 55.1553 65.7336 53.9448 65.8333C53.9153 66.8559 53.9205 67.8803 53.9396 68.9047C59.3554 68.9528 64.7764 68.8944 70.194 68.9322C73.3709 69.0095 76.4404 70.7781 78.0757 73.4817C79.8238 76.2386 79.966 79.9013 78.4469 82.787C77.0179 85.6659 74.0455 87.5772 70.8685 88H8.64662C5.50604 87.5892 2.55969 85.7244 1.10646 82.8988C-0.466427 79.9975 -0.350238 76.273 1.41861 73.4817C3.0574 70.7816 6.12341 69.0113 9.30214 68.9322C14.7197 68.8944 20.1389 68.9528 25.5548 68.9047C25.5721 67.8803 25.579 66.8559 25.5495 65.8333C18.0545 65.7663 10.5542 65.8367 3.0574 65.7972C1.64405 65.7955 0.253252 64.6216 6.34284e-05 63.238V48.2866C-0.0103416 46.7758 1.2608 45.3922 2.7834 45.2788C3.98691 45.1997 5.19736 45.2959 6.40261 45.2323C6.46851 43.2163 6.38006 41.195 6.44249 39.1789C6.49972 37.7609 7.54022 36.4289 8.93276 36.068C9.3715 35.9305 9.89175 35.9786 10.2403 35.6331C22.7489 25.7847 35.3025 15.9913 47.7972 6.12562C47.4243 3.28797 49.4342 0.469219 52.3095 0ZM53.7818 2.68297C54.4405 2.8578 54.9284 3.3268 55.4074 3.78718C55.5311 3.9061 55.6542 4.02448 55.7796 4.13703C58.1017 6.3031 60.4304 8.46322 62.7594 10.6236L62.7603 10.6243C68.4942 15.9431 74.2297 21.2631 79.8706 26.6767C79.3384 26.6624 78.8012 26.6731 78.2637 26.6837C77.3144 26.7025 76.3644 26.7213 75.4398 26.6028C70.8217 22.9243 66.2231 19.2201 61.6245 15.5158L61.6205 15.5126L61.619 15.5114L61.6177 15.5104C58.2407 12.7901 54.8636 10.0698 51.4788 7.35969C50.4348 6.6 50.088 5.05656 50.7297 3.93766C51.3002 2.89437 52.632 2.33234 53.7818 2.68297ZM3.4025 63.238C3.0574 63.2569 2.59611 63.1348 2.61692 62.7086L2.63947 48.2195C2.68109 47.8534 3.1181 47.8363 3.40597 47.8294C12.0803 47.8277 20.7563 47.8363 29.4306 47.8242C30.8838 47.8758 32.2799 46.7947 32.5382 45.3698C32.8244 42.4806 32.3492 39.4986 32.7758 36.6472C33.0273 36.5234 33.3117 36.5217 33.5857 36.52C39.9483 36.5303 46.3093 36.5166 52.6719 36.5269C53.2008 36.4873 53.7003 36.7984 53.9101 37.2763C55.2177 39.8888 56.4767 42.5253 57.7843 45.1361C57.9906 45.5245 58.0773 45.9611 58.0652 46.3994C58.0565 51.5625 58.0739 56.7256 58.0565 61.8887C58.1293 62.6553 57.427 63.2912 56.6709 63.2328C38.9148 63.2448 21.1586 63.2345 3.4025 63.238ZM21.3459 38.653C19.6014 36.5458 16.7816 35.6503 14.0954 35.9047C25.7074 26.7661 37.3246 17.6292 48.9729 8.53875C49.5456 9.14405 50.1996 9.65843 50.8538 10.1729C51.2714 10.5014 51.6891 10.8299 52.0858 11.1822C41.8577 20.3569 31.6105 29.5161 21.3459 38.653ZM76.6242 35.1725C76.1768 33.2131 75.7554 31.2452 75.3687 29.272C76.2196 29.2796 77.0743 29.2706 77.9294 29.2616C79.5994 29.2441 81.2711 29.2265 82.9193 29.3322C82.7005 30.3294 82.4892 31.3285 82.2778 32.3275L82.2775 32.329L82.2771 32.3305L82.2766 32.333L82.2762 32.3351C82.0775 33.274 81.8789 34.2129 81.6741 35.1502C80.4711 35.1969 79.2644 35.1882 78.0587 35.1794H78.0576C77.5796 35.176 77.1017 35.1725 76.6242 35.1725ZM15.3821 38.4897C17.5706 38.4261 19.6967 39.9919 20.2707 42.087C20.5292 43.0163 20.507 43.9924 20.4851 44.9509C20.4829 45.0472 20.4807 45.1433 20.4788 45.2392C19.3848 45.2392 18.2895 45.2439 17.1945 45.2486H17.1934C14.4706 45.2602 11.7467 45.2718 9.02987 45.2117C9.02915 44.805 9.02805 44.3982 9.02695 43.9915C9.02278 42.4457 9.0186 40.9 9.03508 39.3542C9.02987 38.8644 9.49983 38.4398 9.99233 38.4931C10.9426 38.4895 11.8928 38.4902 12.843 38.4909H12.8455C13.6911 38.4915 14.5366 38.4921 15.3821 38.4897ZM70.6328 53.4741C71.4791 51.8602 73.0866 50.6862 74.8746 50.3013C76.7163 49.9403 78.7175 50.413 80.143 51.635C82.1095 53.218 82.883 56.0488 82.035 58.4069C81.1973 60.9489 78.5389 62.757 75.8405 62.5766C74.0751 62.5078 72.3704 61.633 71.2744 60.2631C69.7189 58.3966 69.4588 55.595 70.6328 53.4741ZM28.1785 68.9116C28.1577 67.882 28.156 66.8508 28.1803 65.823C35.8904 65.7972 43.604 65.7972 51.3141 65.823C51.3384 66.8508 51.3366 67.882 51.3158 68.9116C43.604 68.9287 35.8904 68.9287 28.1785 68.9116ZM2.65334 77.8422C2.85797 74.6384 5.6257 71.8403 8.85299 71.5687C9.4685 71.492 10.0883 71.4954 10.7073 71.4989C10.8783 71.4998 11.0493 71.5007 11.2201 71.5H68.7945C69.9841 71.4828 71.205 71.5223 72.327 71.9555C75.2681 72.9884 77.2468 76.1509 76.8306 79.2241C76.5462 82.6684 73.3137 85.4803 69.8419 85.4167C57.6759 85.4242 45.5092 85.423 33.3426 85.4219C32.8745 85.4219 32.4063 85.4219 31.9383 85.4218C24.9171 85.4212 17.8959 85.4206 10.875 85.4219C9.67498 85.4322 8.44026 85.4305 7.29917 85.0111C4.33895 84.04 2.30304 80.917 2.65334 77.8422Z" fill="#E5E5E5"/>
<path d="M36.0336 38.1552C36.5817 37.9634 37.1722 38.0043 37.7451 38.0025C42.1054 38.0078 46.4675 38.0007 50.8278 38.006C51.5404 37.9688 52.2476 38.3665 52.5535 39.0199C53.4977 40.927 54.3977 42.8553 55.3437 44.7623C56.4028 46.561 55.7804 48.7255 55.9502 50.6965C56.1093 51.7867 55.379 52.9977 54.1997 52.9835C50.1258 53.0154 46.052 52.987 41.9799 52.9977C41.3646 53.0243 40.7457 52.8219 40.3125 52.3727C38.7406 50.8137 37.1687 49.2547 35.6039 47.6903C35.176 47.2731 34.9638 46.6835 34.9815 46.0887C34.985 44.013 34.9744 41.9391 34.9868 39.8634C34.9797 39.1496 35.3723 38.4482 36.0336 38.1552ZM37.6567 40.6748C37.6231 42.4256 37.6408 44.1764 37.6461 45.9271C39.0624 47.4293 40.5547 48.8693 42.0294 50.3147C45.7797 50.3502 49.5335 50.3378 53.2855 50.32C53.2962 49.0895 53.3156 47.8572 53.2767 46.6285C52.3573 44.6487 51.3883 42.6884 50.4229 40.7299C46.1899 40.5914 41.9092 40.6997 37.6567 40.6748Z" fill="#E5E5E5"/>
<path d="M10.0723 51.1377C11.1207 50.5859 12.4188 51.8045 11.8357 52.8065C10.7035 55.0473 9.58914 57.3067 8.37134 59.5086C7.62426 60.5884 5.64869 59.7269 6.02847 58.4847C6.92176 56.4503 8.04505 54.5057 9.03284 52.5086C9.30386 52.0144 9.49464 51.3899 10.0723 51.1377Z" fill="#E5E5E5"/>
<path d="M19.0283 51.164C20.0523 50.5629 21.3899 51.7329 20.8609 52.7557C19.7353 54.9975 18.6115 57.2462 17.4183 59.4559C16.6899 60.6497 14.542 59.6913 15.0603 58.3875C15.9917 56.3776 17.0852 54.4354 18.0666 52.4441C18.323 51.9869 18.4993 51.4078 19.0283 51.164Z" fill="#E5E5E5"/>
<path d="M28.1216 51.1037C28.8185 50.7987 29.7262 51.1969 29.9263 51.9003C30.1264 52.4968 29.7262 53.0544 29.476 53.5747C28.4272 55.5339 27.4873 57.5473 26.3974 59.4845C25.6505 60.62 23.594 59.7048 24.0442 58.4303C24.9412 56.4525 26.0257 54.5475 26.9906 52.5951C27.2908 52.0579 27.4909 51.3766 28.1216 51.1037Z" fill="#E5E5E5"/>
<path d="M35.9868 55.0886C37.3062 54.9701 38.6584 54.9721 39.9779 55.0847C41.2573 55.3434 41.3355 57.5218 40.078 57.8911C38.7058 58.0412 37.299 58.0274 35.9267 57.903C34.6346 57.587 34.6765 55.3355 35.9868 55.0886Z" fill="#E5E5E5"/>
</svg>
