<svg width="91" height="100" viewBox="0 0 91 100" fill="none" xmlns="http://www.w3.org/2000/svg">
<g clip-path="url(#clip0_2069_4621)">
<path fill-rule="evenodd" clip-rule="evenodd" d="M66.001 0.0902157C67.3784 0.392033 68.5235 1.56623 68.7558 2.95955C68.8279 3.44088 68.8226 3.92624 68.8173 4.4118C68.8133 4.77916 68.8093 5.14664 68.8388 5.51259C69.2539 5.54926 69.6718 5.54196 70.0896 5.53465C70.6845 5.52424 71.2793 5.51384 71.8654 5.63042C73.4254 5.96325 74.6514 7.42892 74.668 9.02483L74.6658 35.7934C74.6657 36.6421 73.9777 37.3301 73.1289 37.3301C72.2801 37.3301 71.592 36.6419 71.592 35.7931C71.592 27.4889 71.5843 19.1847 71.5622 10.8806C71.5607 10.3322 71.5593 9.78391 71.5584 9.23569C71.6061 8.89046 71.2949 8.58864 70.9527 8.64033C60.5422 8.63606 50.1324 8.63564 39.7225 8.63596L32.3988 8.63626C25.0521 8.6366 17.7054 8.63694 10.3584 8.63619C9.97459 8.56384 9.5846 8.82224 9.64475 9.24396L9.64368 13.227C9.63665 40.9131 9.63882 68.5991 9.64475 96.2852C9.58045 96.7007 9.97044 96.9798 10.3563 96.8991C16.4053 96.8927 22.4542 96.8959 28.5031 96.8992C38.064 96.9042 47.6247 96.9093 57.1846 96.8764C57.1897 95.4053 57.1876 93.9345 57.1855 92.4639V92.4616C57.1824 90.2897 57.1794 88.1183 57.1991 85.9469C57.2303 84.1691 58.784 82.5835 60.568 82.5215C64.2292 82.4843 67.8922 82.5422 71.5542 82.4946C71.5551 81.2559 71.556 80.0171 71.5571 78.7783C71.5578 77.9214 72.2527 77.2271 73.1096 77.2271C73.9671 77.2271 74.6623 77.9223 74.6622 78.7798L74.6618 84.2972C74.6576 84.8347 74.2697 85.244 73.9149 85.5996C72.4804 87.0212 71.0447 88.4412 69.609 89.8611L59.2176 100H9.48502C8.44158 99.6754 7.42511 99.0615 6.93554 98.0485C6.49867 97.2556 6.51377 96.3653 6.52874 95.4832C6.53445 95.1465 6.54014 94.811 6.52065 94.4825C6.0945 94.4483 5.6666 94.4539 5.23855 94.4594C4.7352 94.4659 4.23166 94.4724 3.73054 94.4143C2.2245 94.2055 0.946642 92.9425 0.724677 91.4416C0.657898 90.9265 0.665248 90.4081 0.672597 89.8897C0.698309 80.2625 0.67756 66.2557 0.673187 56.6282C0.676737 53.2377 0.679919 5.5373 0.674891 3.65414C0.591914 1.69646 2.37385 -0.077231 4.33835 0.00339145C12.1635 -0.00273104 27.8136 0.00130554 27.8136 0.00130554L66.001 0.0902157ZM9.9331 5.54773C8.03914 5.60975 6.42938 7.36277 6.52895 9.25016L6.52889 13.7024L6.52869 29.7578C6.5283 50.266 6.52791 70.7748 6.53103 91.2824C6.30377 91.2734 6.02753 91.3076 5.73769 91.3434C4.96394 91.4389 4.09327 91.5465 3.79899 90.8773C3.77856 79.9128 3.78154 68.9477 3.78453 57.9827C3.77923 53.7586 3.77458 5.94961 3.79277 3.67895C3.72224 3.23656 4.18276 3.04017 4.55409 3.10219C10.3991 3.10219 16.2442 3.10201 22.0894 3.10182L24.5945 3.10173L24.6827 3.10173C38.1022 3.10127 51.522 3.10081 64.9409 3.10219C65.8409 3.05522 65.7714 3.90032 65.7081 4.66966C65.6823 4.98387 65.6575 5.28545 65.7002 5.50846C63.834 5.51551 61.9678 5.52107 60.1016 5.5254C52.4176 5.54325 44.733 5.54038 37.0483 5.53621L35.5113 5.53536C26.9852 5.53065 18.4589 5.52593 9.9331 5.54773ZM69.3097 85.6161C66.3619 88.6571 63.3685 91.6773 60.3129 94.6107C60.2906 92.8686 60.294 91.1266 60.2974 89.385C60.2994 88.3738 60.3014 87.3628 60.2984 86.3521C60.2423 86.0234 60.4104 85.581 60.8107 85.6223C63.1704 85.6051 65.5314 85.6094 67.8927 85.6137L68.0017 85.6139C68.4377 85.6147 68.8737 85.6155 69.3097 85.6161Z" fill="#E5E5E5"/>
<path fill-rule="evenodd" clip-rule="evenodd" d="M85.5527 37.4787C84.4641 36.6223 82.8164 36.9773 82.0117 38.0491C75.3039 46.0933 66.3362 56.8379 59.5678 64.8314C59.3391 65.0877 59.1316 65.3764 59.0638 65.7215C58.6535 67.3504 58.237 68.9776 57.8207 70.6045L57.8203 70.6062L57.8198 70.6078C57.6734 71.1801 57.5269 71.7523 57.3808 72.3245L57.3384 72.2734C56.6048 71.3894 55.7397 70.3468 54.4722 70.4089C53.2256 70.482 52.3409 71.3992 51.5132 72.2575C51.3669 72.4091 51.2224 72.559 51.078 72.7019C50.8642 71.9939 50.6784 71.2772 50.4926 70.5606C50.2955 69.8004 50.0984 69.0403 49.868 68.2906C49.6011 67.5793 48.5478 67.4131 48.0932 68.0342C47.5278 68.7882 46.9777 69.5535 46.4275 70.3188C45.917 71.0289 45.4065 71.739 44.8839 72.44C44.3799 73.0217 43.8095 73.6513 43.0202 73.809C42.4231 73.9009 41.8174 73.887 41.2124 73.8732C40.5844 73.8588 39.9571 73.8444 39.3407 73.9485C38.2846 74.2555 38.5374 75.9936 39.6429 75.9781C40.0696 75.9625 40.5057 75.9738 40.9441 75.9852C42.2131 76.018 43.5014 76.0513 44.6368 75.4358C45.9008 74.7209 46.727 73.5472 47.5471 72.3823C47.8418 71.9636 48.1358 71.546 48.449 71.1512C48.6506 71.8407 48.8324 72.5358 49.0142 73.2309C49.1889 73.8988 49.3636 74.5669 49.556 75.2302C49.7282 75.9485 50.7349 76.2344 51.2601 75.7147C51.5843 75.3779 51.8903 75.0204 52.1966 74.6626C52.8279 73.925 53.4604 73.186 54.2562 72.6245C54.5287 72.3738 54.8464 72.6428 55.037 72.8541C55.5739 73.4283 55.9981 74.0818 56.4228 74.7363C56.604 75.0154 56.7853 75.2948 56.9756 75.5682C57.2749 75.9978 57.8863 76.0879 58.3381 75.8541C60.0873 75.0597 64.9242 72.8644 66.6754 72.0752C67.0939 71.9086 67.372 71.5616 67.6463 71.2194C67.7338 71.1101 67.821 71.0014 67.9123 70.8991C75.3193 62.0918 82.7135 53.2738 90.1033 44.4521C90.9378 43.4929 90.8375 41.8943 89.8675 41.0647C88.4443 39.852 86.9999 38.6618 85.5527 37.4787ZM66.3013 69.5075C72.4629 62.1919 78.6273 54.872 84.7437 47.5183C83.569 46.4936 82.365 45.4997 81.162 44.5066C80.8223 44.2261 80.4826 43.9457 80.1437 43.6647C74.4753 49.9704 69.0688 56.5924 63.6969 63.172L63.696 63.1731C63.017 64.0047 62.3386 64.8357 61.6603 65.6652L61.7504 65.7418C63.2483 67.0166 64.7524 68.2966 66.3013 69.5075ZM86.1217 45.8817L81.4991 42.014L84.0434 39.0071L88.7557 42.9684L86.1217 45.8817ZM59.4027 73.0329L60.7482 67.7202L64.3486 70.8118C62.7003 71.5524 61.0651 72.3242 59.4027 73.0329Z" fill="#E5E5E5"/>
<path d="M17.7417 54.075C24.1904 53.9478 30.6582 54.0273 37.1132 54.0054C38.5375 53.8862 39.1717 55.7626 38.2044 56.5994C37.7624 57.0586 37.0471 56.9592 36.4534 56.9751C30.3294 56.9433 24.2053 57.0387 18.0834 56.9811C16.3901 56.997 16.1424 54.4328 17.7417 54.075Z" fill="#E5E5E5"/>
<path d="M17.216 62.037C22.0968 62.0072 26.9811 61.9773 31.862 62.0251C32.8296 62.1803 32.7492 65.0248 31.7643 64.973C26.9375 64.9869 22.1095 65.0188 17.2826 64.985C16.3449 64.965 16.2828 62.1823 17.216 62.037Z" fill="#E5E5E5"/>
<path d="M17.216 46.037C22.0968 46.0072 26.9811 45.9773 31.862 46.0251C32.8296 46.1803 32.7492 49.0248 31.7643 48.973C26.9375 48.9869 22.1095 49.0188 17.2826 48.985C16.3449 48.965 16.2828 46.1823 17.216 46.037Z" fill="#E5E5E5"/>
<path d="M46.3392 13.2497C46.8948 12.8263 47.6865 12.9867 48.2005 13.3924C52.545 16.638 56.8962 19.8756 61.2341 23.1292C62.0607 23.7129 61.6216 25.1673 60.6286 25.2924C60.1529 25.3886 59.7254 25.124 59.3445 24.8883C59.3396 29.1682 59.3529 33.4497 59.3396 37.7296C59.4078 38.4817 58.6709 39.0782 57.9174 38.9916C50.7004 38.9916 43.4833 38.9996 36.2663 38.9868C35.5478 39.0365 34.9074 38.4256 34.9606 37.7312C34.9473 33.4497 34.9573 29.1682 34.9556 24.8867C34.465 25.2347 33.7863 25.4255 33.2308 25.0968C32.4657 24.6782 32.5073 23.5076 33.1942 23.0378C37.5737 19.7746 41.9598 16.5145 46.3392 13.2497ZM37.4107 22.9544C37.4123 27.4652 37.399 31.9777 37.4173 36.4901C39.0889 36.5061 40.7605 36.4981 42.4338 36.4933C42.4521 33.3679 42.4222 30.2426 42.4471 27.1189C42.4238 26.4967 42.9744 25.921 43.6281 25.937C45.8901 25.9114 48.1539 25.9274 50.4176 25.929C51.1146 25.8761 51.7549 26.4438 51.7283 27.1253C51.7616 30.2474 51.7217 33.3695 51.7449 36.4917C53.3733 36.5029 55.0017 36.5013 56.63 36.4917C56.6417 31.9809 56.6334 27.47 56.6334 22.9592C53.4748 20.5667 50.2796 18.2175 47.0927 15.8603C43.8559 18.2127 40.6291 20.5779 37.4107 22.9544ZM45.0269 28.4178C45.0219 31.1101 45.0136 33.8025 45.0302 36.4933C46.4024 36.5013 47.7747 36.5013 49.1452 36.4917C49.1535 33.8009 49.1552 31.1101 49.1452 28.421C47.7713 28.4097 46.3991 28.4194 45.0269 28.4178Z" fill="#E5E5E5"/>
</g>
<defs>
<clipPath id="clip0_2069_4621">
<rect width="90" height="100" fill="white" transform="translate(0.667969)"/>
</clipPath>
</defs>
</svg>
