<svg width="101" height="100" viewBox="0 0 101 100" fill="none" xmlns="http://www.w3.org/2000/svg">
<path fill-rule="evenodd" clip-rule="evenodd" d="M83.9729 6H89.7344C92.0407 6.4316 93.8987 8.34152 94.332 10.6949V88.2932C93.9053 90.6517 92.0457 92.5565 89.7444 93H83.9812C81.5039 92.5684 79.3952 90.3475 79.3487 87.7256C79.3169 62.2983 79.34 36.8701 79.342 11.4426C79.3121 8.76293 81.4358 6.4367 83.9729 6ZM84.6918 90.4478C83.2473 90.4648 81.9206 89.2124 81.8442 87.7324C81.285 62.3216 81.808 36.8567 81.8343 11.4426C81.8276 9.95918 83.0762 8.62529 84.5208 8.55902C86.0234 8.53523 87.5261 8.54883 89.0287 8.55223C90.5148 8.55563 91.8331 9.9065 91.8365 11.4256C91.8348 13.4545 91.8647 15.4867 91.8215 17.5139C90.8568 17.5921 89.8589 17.3882 88.9142 17.6295C87.913 18.022 87.9661 19.66 88.9922 19.9829C89.9204 20.1851 90.8851 19.9965 91.8265 20.0865C91.8531 22.6371 91.8481 25.1893 91.8298 27.7381C90.8734 27.8248 89.8888 27.6226 88.949 27.8469C87.9395 28.2037 87.9379 29.8417 88.9457 30.2037C89.8855 30.4246 90.8718 30.2241 91.8298 30.3107C91.8481 32.863 91.8514 35.4186 91.8282 37.9708C90.8485 38.0863 89.8241 37.8264 88.8727 38.1186C87.8831 38.5519 88.001 40.19 89.0387 40.4738C89.9552 40.625 90.8934 40.4907 91.8182 40.5434C91.8481 43.1041 91.8747 45.6751 91.8049 48.2341C90.8386 48.297 89.8374 48.0931 88.8943 48.3462C87.8964 48.7557 87.9794 50.4023 89.0155 50.7013C89.9403 50.89 90.8967 50.703 91.8331 50.8033C91.8381 53.3538 91.8663 55.9078 91.8182 58.4566C90.8519 58.5296 89.8556 58.3257 88.9109 58.5738C87.9163 58.968 87.9611 60.6112 88.9939 60.9239C89.9204 61.1295 90.8867 60.9306 91.8282 61.0292C91.8514 63.5814 91.8497 66.1371 91.8298 68.6893C90.8718 68.7742 89.8872 68.5771 88.9474 68.7946C87.9379 69.1549 87.9395 70.7946 88.9507 71.1515C89.8888 71.3791 90.8734 71.1752 91.8298 71.2619C91.8481 73.8107 91.8531 76.3629 91.8265 78.9118C90.8851 79.0035 89.9204 78.8149 88.9906 79.0154C87.9661 79.3383 87.913 80.9763 88.9142 81.3689C89.8573 81.6118 90.8568 81.4079 91.8215 81.4861C91.8647 83.5133 91.8348 85.5455 91.8365 87.5744C91.8315 89.0935 90.5148 90.441 89.0304 90.4461C87.5842 90.4563 86.138 90.4529 84.6918 90.4478Z" fill="#D9D9D9"/>
<path fill-rule="evenodd" clip-rule="evenodd" d="M19.9622 7H27.999C30.0681 7.4418 31.9851 8.82156 32.7784 10.8827C33.2548 11.9333 33.2605 13.0922 33.2661 14.2277C33.2668 14.3723 33.2675 14.5165 33.2692 14.6601C34.9041 14.6922 36.5401 14.686 38.1759 14.6799C40.0061 14.673 41.8361 14.6661 43.6643 14.7128C47.4175 14.9591 50.5757 18.3967 50.6864 22.2471C50.9655 22.3906 51.2997 22.3725 51.6344 22.3543C51.8467 22.3428 52.0592 22.3313 52.258 22.3609C54.7436 22.3762 57.0837 24.1655 57.839 26.5971C58.1425 27.4393 58.1476 28.3299 58.1527 29.2164C58.1544 29.5175 58.1561 29.8181 58.1695 30.1162C63.0053 26.7607 67.7439 23.2599 72.5872 19.9158C73.7738 19.2582 74.9752 21.1086 73.9357 21.9854C69.6488 25.1386 65.2517 28.1298 60.9674 31.2869C63.7169 31.3258 66.6746 31.3124 68.3173 31.2994C69.0272 31.2938 69.6054 31.8673 69.6054 32.5773C69.6054 33.2868 69.028 33.86 68.3186 33.8549C66.6831 33.8431 63.7372 33.831 60.9542 33.8663C65.2322 37.0356 69.634 40.0232 73.9241 43.1747C74.9868 44.0447 73.7688 45.9325 72.5739 45.2477C67.738 41.9006 62.9942 38.4156 58.1712 35.049C58.1504 35.3814 58.1502 35.7157 58.15 36.0499C58.1496 36.6725 58.1492 37.2951 58.0158 37.9054C57.5514 40.2945 55.5832 42.2792 53.2496 42.7023C52.7878 42.8101 52.3171 42.8112 51.8466 42.8122C51.4568 42.8131 51.0672 42.814 50.6831 42.8756C50.6054 46.6887 47.5199 50.1296 43.8131 50.4456C42.2998 50.5213 40.784 50.5111 39.2679 50.5009C38.095 50.493 35.7498 50.517 35.7498 50.517C35.7498 50.517 35.73 52.1873 35.7498 53.0216C40.2367 53.042 40.5821 55.0505 40.2367 57.6316C39.779 60.0428 38.3412 62.1583 36.6373 63.8338L48.4364 91.7139C48.8955 92.7985 48.0993 94 46.9215 94C46.2497 94 45.6454 93.5915 45.395 92.968L34.3699 65.5126C34.022 65.7291 33.6329 65.8893 33.2475 66.0479C32.8164 66.2253 32.39 66.4008 32.0314 66.6511C32.0089 70.6453 32.0129 74.6404 32.0168 78.6355C32.0207 82.5673 32.0246 86.499 32.0033 90.4299C31.9372 92.1665 30.5738 93.548 29.0054 94H27.5908C25.9563 93.5565 24.5631 92.0714 24.5664 90.2719C24.5549 82.5668 24.5598 74.8601 24.5648 67.1533V67.1506C24.5555 67.0906 24.5578 67.0181 24.5601 66.943C24.5664 66.7357 24.5734 66.5083 24.3417 66.4659C23.6079 66.2042 22.9039 65.8728 22.2114 65.5143L10.0336 93.104C9.79324 93.6486 9.25402 94 8.65869 94C7.56751 94 6.84003 92.8738 7.28869 91.8791L19.939 63.8338C18.2451 62.1583 16.7825 60.0513 16.3545 57.635C16.0289 55.0607 16.3545 53.042 20.8215 53.0199C20.8364 52.1856 20.8199 50.5187 20.8199 50.5187C20.8199 50.5187 16.0654 50.6227 13.6954 50.4048C10.3256 49.9596 7.6434 46.9945 7.13769 43.591V21.5708C7.66984 17.8325 10.876 14.7467 14.5845 14.6601C14.5894 14.4726 14.592 14.2839 14.5946 14.0947C14.6096 13.0116 14.6249 11.9106 15.0737 10.9082C15.8818 8.81816 17.8385 7.38402 19.9622 7ZM14.9034 47.9495C12.7765 48.0055 10.3851 45.6385 9.63814 43.591C9.33309 37.7389 9.49533 29.1455 9.6119 22.971L9.61192 22.97L9.61195 22.9683C9.62104 22.4869 9.62985 22.0203 9.63814 21.5708C9.79844 18.9234 12.1518 17.2106 14.7299 17.2327C24.2128 17.2276 33.6939 17.2225 43.1751 17.2361C45.8557 17.2446 48.2157 19.7153 48.1992 22.4663C48.2107 29.2037 48.2091 35.9428 48.2008 42.6802C48.2289 45.4448 45.8623 47.9172 43.1751 47.941C36.9757 47.9566 30.7756 47.9539 24.5757 47.9512C21.3515 47.9497 18.1274 47.9483 14.9034 47.9495ZM55.6707 36.5715C55.6988 37.953 54.894 39.3072 53.6777 39.8969C52.8466 40.3302 51.8982 40.295 50.9881 40.2611C50.8848 40.2573 50.7819 40.2534 50.6798 40.2503C50.6886 36.8417 50.6871 33.4339 50.6856 30.0258C50.6849 28.3217 50.6842 26.6175 50.6847 24.9132C51.3474 24.886 52.0151 24.8741 52.6762 24.9471C54.299 25.1799 55.6327 26.7092 55.6641 28.3983C55.6765 30.2466 55.6743 32.0958 55.6722 33.9447C55.6712 34.8204 55.6702 35.696 55.6707 36.5715ZM23.3203 53.042L23.3187 50.5102H33.2593L33.2577 53.0403L23.3203 53.042ZM18.9127 57.7914C18.5954 56.9553 19.0747 55.9222 19.9242 55.6843C23.3211 55.5682 26.7194 55.5858 30.1176 55.6035C32.1009 55.6138 34.0841 55.6241 36.0671 55.6078C37.0901 55.5127 38.0553 56.5815 37.7132 57.6265C36.8323 60.3827 34.7268 62.6953 32.114 63.7879C29.5062 64.923 26.424 64.821 23.8921 63.5194C21.595 62.3724 19.7605 60.2705 18.9127 57.7914ZM30.5407 11.9838C30.035 10.5565 28.6344 9.54033 27.1553 9.55053C26.8012 9.55025 26.4466 9.54992 26.0917 9.54959L26.0899 9.54959C24.2896 9.54794 22.4803 9.54627 20.6844 9.55053C19.2482 9.55393 17.8798 10.531 17.356 11.9039C17.054 12.6237 17.0689 13.409 17.0836 14.1812C17.0866 14.3387 17.0896 14.4958 17.0899 14.6516L30.8117 14.6742C30.8128 14.6007 30.8141 14.5269 30.8155 14.4528C30.8303 13.6244 30.8456 12.7652 30.5407 11.9838ZM29.5194 90.362C29.3905 91.7723 27.1825 91.7723 27.0586 90.362L27.0487 67.0674C27.875 67.1371 28.7046 67.1404 29.531 67.0657C29.532 68.754 29.5339 70.4423 29.5357 72.1306C29.5424 78.2078 29.5491 84.2849 29.5194 90.362Z" fill="#D9D9D9"/>
<rect x="17.332" y="25" width="19" height="10" rx="1" stroke="#D9D9D9" stroke-width="2"/>
</svg>
