<svg width="200" height="57" viewBox="0 0 200 57" fill="none" xmlns="http://www.w3.org/2000/svg">
<path d="M90.1185 17.0273C91.4115 17.0273 92.3547 17.3315 92.948 17.94C93.5412 18.5333 93.8379 19.4536 93.8379 20.701V21.2715C93.8379 22.9144 93.2978 23.9868 92.2178 24.4888C93.4652 24.9756 94.0889 26.1165 94.0889 27.9115V29.2122C94.0889 30.4444 93.7618 31.3875 93.1077 32.0416C92.4688 32.6805 91.5256 33 90.2782 33H86.3307V17.0273H90.1185ZM89.9588 25.8123H88.8407V30.7182H90.2782C90.7194 30.7182 91.0465 30.6041 91.2594 30.3759C91.4724 30.1325 91.5789 29.7218 91.5789 29.1437V27.7518C91.5789 27.0216 91.4496 26.5196 91.191 26.2458C90.9476 25.9568 90.5368 25.8123 89.9588 25.8123ZM90.0501 19.3091H88.8407V23.5305H89.8219C90.3239 23.5305 90.6966 23.4012 90.94 23.1425C91.1986 22.8839 91.3279 22.4504 91.3279 21.8419V20.952C91.3279 19.8567 90.9019 19.3091 90.0501 19.3091ZM102.788 27.0445H105.161V29.1665C105.161 30.4596 104.842 31.456 104.203 32.1557C103.564 32.8403 102.636 33.1825 101.419 33.1825C100.202 33.1825 99.2743 32.8403 98.6354 32.1557C97.9965 31.456 97.677 30.4596 97.677 29.1665V20.8607C97.677 19.5677 97.9965 18.5789 98.6354 17.8944C99.2743 17.1946 100.202 16.8447 101.419 16.8447C102.636 16.8447 103.564 17.1946 104.203 17.8944C104.842 18.5789 105.161 19.5677 105.161 20.8607V22.4124H102.788V20.701C102.788 19.6514 102.355 19.1265 101.488 19.1265C100.621 19.1265 100.187 19.6514 100.187 20.701V29.3263C100.187 30.3607 100.621 30.8779 101.488 30.8779C102.355 30.8779 102.788 30.3607 102.788 29.3263V27.0445ZM111.476 19.3091V23.7586H114.922V26.0405H111.476V30.7182H115.812V33H108.966V17.0273H115.812V19.3091H111.476ZM109.537 13.9925H111.727V16.183H109.537V13.9925ZM113.005 13.9925H115.196V16.183H113.005V13.9925ZM135.217 35.1449H132.73V33H127.368V35.1449H124.926V30.7638H125.907C126.272 30.3075 126.478 29.6153 126.523 28.6874L127.094 17.0273H134.122V30.7638H135.217V35.1449ZM129.444 19.3091L128.988 28.6417C128.927 29.6609 128.691 30.3683 128.28 30.7638H131.566V19.3091H129.444ZM138.19 33.0228V30.741C138.798 30.741 139.201 30.6497 139.399 30.4672C139.612 30.2694 139.726 29.8131 139.741 29.0981L140.152 17.0273H147.249V33H144.693V19.3091H142.502L142.229 28.9612C142.183 30.4215 141.879 31.4636 141.316 32.0873C140.753 32.711 139.84 33.0228 138.578 33.0228H138.19ZM153.551 33H150.995C151.178 32.5741 151.269 31.9275 151.269 31.0605V28.5961C151.269 26.8011 151.824 25.6678 152.935 25.1962C151.84 24.679 151.292 23.5989 151.292 21.956V20.701C151.292 19.4536 151.589 18.5333 152.182 17.94C152.775 17.3315 153.718 17.0273 155.011 17.0273H158.799V33H156.289V26.4968H155.422C154.844 26.4968 154.426 26.6565 154.167 26.976C153.908 27.2802 153.779 27.7975 153.779 28.5276V31.0376C153.779 31.8895 153.703 32.5436 153.551 33ZM156.289 19.3091H155.08C154.228 19.3091 153.802 19.8567 153.802 20.952V22.5265C153.802 23.1349 153.924 23.5685 154.167 23.8271C154.426 24.0857 154.806 24.215 155.308 24.215H156.289V19.3091ZM172.527 17.0273C173.82 17.0273 174.763 17.3315 175.356 17.94C175.95 18.5333 176.246 19.4536 176.246 20.701V21.2715C176.246 22.9144 175.706 23.9868 174.626 24.4888C175.874 24.9756 176.497 26.1165 176.497 27.9115V29.2122C176.497 30.4444 176.17 31.3875 175.516 32.0416C174.877 32.6805 173.934 33 172.687 33H168.739V17.0273H172.527ZM172.367 25.8123H171.249V30.7182H172.687C173.128 30.7182 173.455 30.6041 173.668 30.3759C173.881 30.1325 173.987 29.7218 173.987 29.1437V27.7518C173.987 27.0216 173.858 26.5196 173.599 26.2458C173.356 25.9568 172.945 25.8123 172.367 25.8123ZM172.458 19.3091H171.249V23.5305H172.23C172.732 23.5305 173.105 23.4012 173.348 23.1425C173.607 22.8839 173.736 22.4504 173.736 21.8419V20.952C173.736 19.8567 173.31 19.3091 172.458 19.3091ZM185.858 17.0273L188.414 33H185.881L185.448 30.1021H182.367L181.934 33H179.629L182.185 17.0273H185.858ZM183.896 19.8567L182.687 27.9344H185.105L183.896 19.8567ZM196.771 27.0445H199.144V29.1665C199.144 30.4596 198.824 31.456 198.185 32.1557C197.547 32.8403 196.619 33.1825 195.402 33.1825C194.185 33.1825 193.257 32.8403 192.618 32.1557C191.979 31.456 191.659 30.4596 191.659 29.1665V20.8607C191.659 19.5677 191.979 18.5789 192.618 17.8944C193.257 17.1946 194.185 16.8447 195.402 16.8447C196.619 16.8447 197.547 17.1946 198.185 17.8944C198.824 18.5789 199.144 19.5677 199.144 20.8607V22.4124H196.771V20.701C196.771 19.6514 196.337 19.1265 195.47 19.1265C194.603 19.1265 194.169 19.6514 194.169 20.701V29.3263C194.169 30.3607 194.603 30.8779 195.47 30.8779C196.337 30.8779 196.771 30.3607 196.771 29.3263V27.0445Z" fill="white"/>
<path d="M89.9785 44.7742L91.1346 52H89.9888L89.7927 50.689H88.3991L88.203 52H87.1604L88.3165 44.7742H89.9785ZM89.0907 46.0542L88.5436 49.7084H89.6378L89.0907 46.0542ZM93.8414 52H92.706V44.7742H95.6995V45.8065H93.8414V52ZM98.6335 45.8065V47.8194H100.192V48.8516H98.6335V50.9677H100.595V52H97.498V44.7742H100.595V45.8065H98.6335ZM103.466 48.9032V52H102.331V44.7742H103.466V47.871H104.756V44.7742H105.913V52H104.756V48.9032H103.466ZM107.438 45.8065V44.7742H110.947V45.8065H109.76V52H108.625V45.8065H107.438ZM114.699 49.3058H115.773V50.2658C115.773 50.8508 115.628 51.3015 115.339 51.6181C115.05 51.9277 114.63 52.0826 114.08 52.0826C113.529 52.0826 113.109 51.9277 112.82 51.6181C112.531 51.3015 112.387 50.8508 112.387 50.2658V46.5084C112.387 45.9235 112.531 45.4762 112.82 45.1665C113.109 44.8499 113.529 44.6917 114.08 44.6917C114.63 44.6917 115.05 44.8499 115.339 45.1665C115.628 45.4762 115.773 45.9235 115.773 46.5084V47.2104H114.699V46.4362C114.699 45.9613 114.503 45.7239 114.111 45.7239C113.718 45.7239 113.522 45.9613 113.522 46.4362V50.3381C113.522 50.806 113.718 51.04 114.111 51.04C114.503 51.04 114.699 50.806 114.699 50.3381V49.3058ZM117.164 45.8065V44.7742H120.673V45.8065H119.486V52H118.351V45.8065H117.164ZM123.919 44.7742C124.504 44.7742 124.931 44.9119 125.199 45.1871C125.467 45.4555 125.602 45.8719 125.602 46.4362V46.6942C125.602 47.4374 125.357 47.9226 124.869 48.1497C125.433 48.3699 125.715 48.886 125.715 49.6981V50.2865C125.715 50.8439 125.567 51.2705 125.271 51.5665C124.982 51.8555 124.556 52 123.991 52H122.206V44.7742H123.919ZM123.847 48.7484H123.341V50.9677H123.991C124.191 50.9677 124.339 50.9161 124.435 50.8129C124.532 50.7028 124.58 50.517 124.58 50.2555V49.6258C124.58 49.2955 124.521 49.0684 124.404 48.9445C124.294 48.8138 124.108 48.7484 123.847 48.7484ZM123.888 45.8065H123.341V47.7162H123.785C124.012 47.7162 124.181 47.6577 124.291 47.5407C124.408 47.4237 124.466 47.2276 124.466 46.9523V46.5497C124.466 46.0542 124.273 45.8065 123.888 45.8065ZM128.474 46.4362V50.3381C128.474 50.8129 128.67 51.0503 129.062 51.0503C129.454 51.0503 129.651 50.8129 129.651 50.3381V46.4362C129.651 45.9613 129.454 45.7239 129.062 45.7239C128.67 45.7239 128.474 45.9613 128.474 46.4362ZM127.338 50.2658V46.5084C127.338 45.9304 127.486 45.4831 127.782 45.1665C128.078 44.8499 128.505 44.6917 129.062 44.6917C129.62 44.6917 130.046 44.8499 130.342 45.1665C130.638 45.4831 130.786 45.9304 130.786 46.5084V50.2658C130.786 50.8439 130.638 51.2912 130.342 51.6077C130.046 51.9243 129.62 52.0826 129.062 52.0826C128.505 52.0826 128.078 51.9243 127.782 51.6077C127.486 51.2912 127.338 50.8439 127.338 50.2658ZM136.327 48.9032V52H135.191V44.7742H136.327V47.871H137.617V44.7742H138.773V52H137.617V48.9032H136.327ZM141.764 45.8065V47.8194H143.323V48.8516H141.764V50.9677H143.726V52H140.629V44.7742H143.726V45.8065H141.764ZM149.869 52.9703H148.744V52H146.318V52.9703H145.214V50.9884H145.658C145.823 50.7819 145.916 50.4688 145.936 50.049L146.194 44.7742H149.374V50.9884H149.869V52.9703ZM147.258 45.8065L147.051 50.0284C147.024 50.4895 146.917 50.8095 146.731 50.9884H148.218V45.8065H147.258ZM153.247 44.7742C153.832 44.7742 154.259 44.9119 154.527 45.1871C154.796 45.4555 154.93 45.8719 154.93 46.4362V46.6942C154.93 47.4374 154.686 47.9226 154.197 48.1497C154.761 48.3699 155.044 48.886 155.044 49.6981V50.2865C155.044 50.8439 154.896 51.2705 154.6 51.5665C154.311 51.8555 153.884 52 153.32 52H151.534V44.7742H153.247ZM153.175 48.7484H152.669V50.9677H153.32C153.519 50.9677 153.667 50.9161 153.764 50.8129C153.86 50.7028 153.908 50.517 153.908 50.2555V49.6258C153.908 49.2955 153.85 49.0684 153.733 48.9445C153.623 48.8138 153.437 48.7484 153.175 48.7484ZM153.217 45.8065H152.669V47.7162H153.113C153.34 47.7162 153.509 47.6577 153.619 47.5407C153.736 47.4237 153.795 47.2276 153.795 46.9523V46.5497C153.795 46.0542 153.602 45.8065 153.217 45.8065ZM158.876 48.6865L157.926 52H156.76V44.7742H157.771V49.3471L158.184 47.7574L159.113 44.7742H160.362V52H159.34V46.911L158.876 48.6865ZM165.469 44.7742V47.6955L166.811 44.7742H167.947L166.553 47.7058L167.947 52H166.78L165.748 48.8L165.469 49.3471V52H164.344V49.3471L164.066 48.7897L163.033 52H161.867L163.271 47.7368L161.867 44.7742H163.002L164.344 47.6955V44.7742H165.469ZM171.575 48.6865L170.626 52H169.459V44.7742H170.471V49.3471L170.884 47.7574L171.813 44.7742H173.062V52H172.04V46.911L171.575 48.6865ZM176.466 44.7742L177.302 49.9045L178.076 44.7742H179.655V52H178.582V46.8181L177.797 52H176.724L175.877 46.8904V52H174.886V44.7742H176.466ZM182.556 46.4362V50.3381C182.556 50.8129 182.752 51.0503 183.145 51.0503C183.537 51.0503 183.733 50.8129 183.733 50.3381V46.4362C183.733 45.9613 183.537 45.7239 183.145 45.7239C182.752 45.7239 182.556 45.9613 182.556 46.4362ZM181.421 50.2658V46.5084C181.421 45.9304 181.569 45.4831 181.865 45.1665C182.16 44.8499 182.587 44.6917 183.145 44.6917C183.702 44.6917 184.129 44.8499 184.425 45.1665C184.72 45.4831 184.868 45.9304 184.868 46.5084V50.2658C184.868 50.8439 184.72 51.2912 184.425 51.6077C184.129 51.9243 183.702 52.0826 183.145 52.0826C182.587 52.0826 182.16 51.9243 181.865 51.6077C181.569 51.2912 181.421 50.8439 181.421 50.2658ZM188.858 49.3058H189.931V50.2658C189.931 50.8508 189.787 51.3015 189.498 51.6181C189.209 51.9277 188.789 52.0826 188.239 52.0826C187.688 52.0826 187.268 51.9277 186.979 51.6181C186.69 51.3015 186.546 50.8508 186.546 50.2658V46.5084C186.546 45.9235 186.69 45.4762 186.979 45.1665C187.268 44.8499 187.688 44.6917 188.239 44.6917C188.789 44.6917 189.209 44.8499 189.498 45.1665C189.787 45.4762 189.931 45.9235 189.931 46.5084V47.2104H188.858V46.4362C188.858 45.9613 188.662 45.7239 188.27 45.7239C187.877 45.7239 187.681 45.9613 187.681 46.4362V50.3381C187.681 50.806 187.877 51.04 188.27 51.04C188.662 51.04 188.858 50.806 188.858 50.3381V49.3058ZM191.322 45.8065V44.7742H194.832V45.8065H193.645V52H192.509V45.8065H191.322ZM198.48 48.6865L197.531 52H196.364V44.7742H197.376V49.3471L197.789 47.7574L198.718 44.7742H199.967V52H198.945V46.911L198.48 48.6865Z" fill="white"/>
<path fill-rule="evenodd" clip-rule="evenodd" d="M38.5736 0L0 38.0303L38.5736 11.4091L77.4188 38.0303L63.2933 24.2011V16.2227L55.1439 8.07337V16.2227L38.5736 0ZM38.5736 2.71645L16.0271 24.7197L38.5736 8.69264V2.71645Z" fill="white"/>
<rect x="33.1406" y="21.7305" width="4.34632" height="4.34632" fill="white"/>
<rect x="33.1406" y="28.25" width="4.34632" height="4.34632" fill="white"/>
<rect x="39.6602" y="21.7305" width="4.34632" height="4.34632" fill="white"/>
<rect x="39.6602" y="28.25" width="4.34632" height="4.34632" fill="white"/>
<path d="M70.5434 38.6542C72.0093 38.1158 72.7158 38.338 73.8897 39.0764C71.5843 40.8147 70.1675 42.175 68.3057 44.2167C66.1201 46.3586 64.229 48.9318 60.8397 50.0673C54.8475 52.1024 48.6664 54.6082 41.9195 54.3033C34.5602 54.0558 28.054 51.1347 21.9269 48.2558C16.1761 45.5521 8.99006 45.3153 2.71875 47.0308C5.27847 41.5147 11.5944 38.3532 19.5949 38.2318C26.4036 38.1093 32.874 39.6908 38.4961 42.4738C43.2925 44.8159 49.1791 42.5907 54.5265 42.8376C56.7188 42.9117 59.4657 43.2529 60.3075 45.0927C60.5791 45.9077 58.8875 46.2041 57.9605 46.4805C52.9394 47.3011 47.8838 48.5018 42.7018 47.8517C45.5678 48.6277 48.6721 48.8012 51.6299 48.2005C54.6557 47.6223 58.6789 47.5583 60.7102 46.3021C61.9374 45.3644 61.9629 43.9473 63.2422 42.9911C66.2843 40.7175 67.5256 39.677 70.5434 38.6542Z" fill="white"/>
<path d="M65.1396 38.1885C65.8429 37.9246 67.0986 38.1886 67.9136 38.5731C65.4427 40.4352 62.9518 41.7901 60.8397 44.0062C60.1039 43.567 59.4926 42.9911 58.4118 42.8376C59.9708 40.8477 62.3729 39.2257 65.1396 38.1885Z" fill="white"/>
<path d="M60.09 38.4094C60.848 38.0425 61.6684 38.0166 62.2195 38.4097C61.1921 39.0489 59.8958 39.7287 57.7663 41.6861C58.0261 40.8591 59.0669 38.9048 60.09 38.4094Z" fill="white"/>
</svg>
