<svg width="316" height="221" viewBox="0 0 316 221" fill="none" xmlns="http://www.w3.org/2000/svg">
<path fill-rule="evenodd" clip-rule="evenodd" d="M157.446 0L0 154.7L157.446 46.41L316 154.7L258.344 98.4455V65.991L225.081 32.8409V65.991L157.446 0ZM157.446 11.05L65.4175 100.555L157.446 35.36V11.05Z" fill="white"/>
<rect x="135.27" y="88.4004" width="17.7404" height="17.68" fill="white"/>
<rect x="135.27" y="114.92" width="17.7404" height="17.68" fill="white"/>
<rect x="161.879" y="88.4004" width="17.7404" height="17.68" fill="white"/>
<rect x="161.879" y="114.92" width="17.7404" height="17.68" fill="white"/>
<path d="M287.925 157.24C293.909 155.05 296.792 155.953 301.584 158.957C292.174 166.028 286.391 171.562 278.792 179.867C269.871 188.58 262.152 199.047 248.318 203.666C223.859 211.944 198.63 222.138 171.091 220.897C141.053 219.89 114.497 208.008 89.4879 196.297C66.0147 185.299 36.6835 184.336 11.0859 191.314C21.5339 168.876 47.3136 156.015 79.9691 155.522C107.76 155.023 134.17 161.456 157.118 172.777C176.696 182.304 200.723 173.253 222.549 174.257C231.498 174.558 242.71 175.946 246.146 183.43C247.254 186.745 240.349 187.951 236.566 189.076C216.071 192.414 195.436 197.298 174.285 194.653C185.983 197.81 198.653 198.516 210.726 196.072C223.077 193.72 239.498 193.46 247.789 188.35C252.798 184.535 252.902 178.771 258.124 174.881C270.541 165.633 275.608 161.4 287.925 157.24Z" fill="white"/>
<path d="M265.869 155.345C268.739 154.272 273.865 155.346 277.191 156.91C267.106 164.484 256.939 169.996 248.318 179.01C245.314 177.224 242.819 174.881 238.408 174.257C244.771 166.162 254.576 159.564 265.869 155.345Z" fill="white"/>
<path d="M245.258 156.244C248.352 154.751 251.7 154.646 253.95 156.245C249.756 158.845 244.465 161.61 235.773 169.573C236.834 166.209 241.082 158.259 245.258 156.244Z" fill="white"/>
</svg>
