<svg width="183" height="41" viewBox="0 0 183 41" fill="none" xmlns="http://www.w3.org/2000/svg">
<path d="M66.8943 5.82969C68.319 5.82969 69.3583 6.16492 70.012 6.8354C70.6657 7.48912 70.9926 8.50321 70.9926 9.87769V10.5063C70.9926 12.3165 70.3975 13.4983 69.2074 14.0514C70.5819 14.5878 71.2691 15.8449 71.2691 17.8228V19.256C71.2691 20.6137 70.9087 21.6529 70.188 22.3737C69.484 23.0777 68.4447 23.4297 67.0703 23.4297H62.7206V5.82969H66.8943ZM66.7183 15.5097H65.4863V20.9154H67.0703C67.5564 20.9154 67.9167 20.7897 68.1514 20.5383C68.3861 20.2701 68.5034 19.8175 68.5034 19.1805V17.6468C68.5034 16.8423 68.3609 16.2891 68.076 15.9874C67.8078 15.6689 67.3552 15.5097 66.7183 15.5097ZM66.8188 8.34397H65.4863V12.9954H66.5674C67.1206 12.9954 67.5312 12.8529 67.7994 12.568C68.0844 12.283 68.2268 11.8053 68.2268 11.1348V10.1543C68.2268 8.9474 67.7575 8.34397 66.8188 8.34397ZM78.8434 16.8674H81.4583V19.2057C81.4583 20.6304 81.1063 21.7284 80.4023 22.4994C79.6983 23.2537 78.6758 23.6308 77.3348 23.6308C75.9939 23.6308 74.9714 23.2537 74.2674 22.4994C73.5634 21.7284 73.2114 20.6304 73.2114 19.2057V10.0537C73.2114 8.62893 73.5634 7.5394 74.2674 6.78511C74.9714 6.01407 75.9939 5.62854 77.3348 5.62854C78.6758 5.62854 79.6983 6.01407 80.4023 6.78511C81.1063 7.5394 81.4583 8.62893 81.4583 10.0537V11.7634H78.8434V9.87769C78.8434 8.72112 78.3657 8.14283 77.4103 8.14283C76.4548 8.14283 75.9771 8.72112 75.9771 9.87769V19.3817C75.9771 20.5215 76.4548 21.0914 77.4103 21.0914C78.3657 21.0914 78.8434 20.5215 78.8434 19.3817V16.8674ZM86.4049 8.34397V13.2468H90.2015V15.7611H86.4049V20.9154H91.1821V23.4297H83.6392V5.82969H91.1821V8.34397H86.4049ZM84.2678 2.48569H86.6815V4.8994H84.2678V2.48569ZM88.0895 2.48569H90.5032V4.8994H88.0895V2.48569ZM108.542 25.7931H105.801V23.4297H99.8925V25.7931H97.2022V20.9657H98.2834C98.6856 20.4628 98.9119 19.7002 98.9622 18.6777L99.5908 5.82969H107.335V20.9657H108.542V25.7931ZM102.181 8.34397L101.678 18.6274C101.611 19.7504 101.351 20.5299 100.898 20.9657H104.519V8.34397H102.181ZM109.806 23.4548V20.9405C110.476 20.9405 110.921 20.84 111.138 20.6388C111.373 20.4209 111.499 19.9181 111.516 19.1303L111.968 5.82969H119.788V23.4297H116.972V8.34397H114.558L114.256 18.9794C114.206 20.5885 113.871 21.7367 113.25 22.424C112.63 23.1112 111.625 23.4548 110.233 23.4548H109.806ZM124.72 23.4297H121.904C122.106 22.9604 122.206 22.248 122.206 21.2925V18.5771C122.206 16.5992 122.818 15.3504 124.042 14.8308C122.835 14.2609 122.231 13.0708 122.231 11.2605V9.87769C122.231 8.50321 122.558 7.48912 123.212 6.8354C123.866 6.16492 124.905 5.82969 126.33 5.82969H130.503V23.4297H127.738V16.264H126.782C126.145 16.264 125.684 16.44 125.399 16.792C125.114 17.1272 124.972 17.6971 124.972 18.5017V21.2674C124.972 22.2061 124.888 22.9268 124.72 23.4297ZM127.738 8.34397H126.405C125.466 8.34397 124.997 8.9474 124.997 10.1543V11.8891C124.997 12.5596 125.131 13.0373 125.399 13.3223C125.684 13.6072 126.103 13.7497 126.656 13.7497H127.738V8.34397ZM141.607 5.82969C143.032 5.82969 144.071 6.16492 144.725 6.8354C145.378 7.48912 145.705 8.50321 145.705 9.87769V10.5063C145.705 12.3165 145.11 13.4983 143.92 14.0514C145.294 14.5878 145.982 15.8449 145.982 17.8228V19.256C145.982 20.6137 145.621 21.6529 144.901 22.3737C144.197 23.0777 143.157 23.4297 141.783 23.4297H137.433V5.82969H141.607ZM141.431 15.5097H140.199V20.9154H141.783C142.269 20.9154 142.629 20.7897 142.864 20.5383C143.099 20.2701 143.216 19.8175 143.216 19.1805V17.6468C143.216 16.8423 143.074 16.2891 142.789 15.9874C142.52 15.6689 142.068 15.5097 141.431 15.5097ZM141.531 8.34397H140.199V12.9954H141.28C141.833 12.9954 142.244 12.8529 142.512 12.568C142.797 12.283 142.939 11.8053 142.939 11.1348V10.1543C142.939 8.9474 142.47 8.34397 141.531 8.34397ZM154.285 5.82969L157.101 23.4297H154.31L153.833 20.2365H150.438L149.961 23.4297H147.421L150.237 5.82969H154.285ZM152.123 8.9474L150.79 17.848H153.455L152.123 8.9474ZM164.298 16.8674H166.913V19.2057C166.913 20.6304 166.561 21.7284 165.857 22.4994C165.153 23.2537 164.13 23.6308 162.789 23.6308C161.448 23.6308 160.426 23.2537 159.722 22.4994C159.018 21.7284 158.666 20.6304 158.666 19.2057V10.0537C158.666 8.62893 159.018 7.5394 159.722 6.78511C160.426 6.01407 161.448 5.62854 162.789 5.62854C164.13 5.62854 165.153 6.01407 165.857 6.78511C166.561 7.5394 166.913 8.62893 166.913 10.0537V11.7634H164.298V9.87769C164.298 8.72112 163.82 8.14283 162.865 8.14283C161.909 8.14283 161.431 8.72112 161.431 9.87769V19.3817C161.431 20.5215 161.909 21.0914 162.865 21.0914C163.82 21.0914 164.298 20.5215 164.298 19.3817V16.8674Z" fill="#060606"/>
<path d="M64.691 29.541L65.971 37.541H64.7025L64.4853 36.0896H62.9425L62.7253 37.541H61.571L62.851 29.541H64.691ZM63.7082 30.9582L63.1025 35.0039H64.3139L63.7082 30.9582ZM68.0536 37.541H66.7965V29.541H70.1108V30.6839H68.0536V37.541ZM72.4449 30.6839V32.9124H74.1706V34.0553H72.4449V36.3982H74.6163V37.541H71.1877V29.541H74.6163V30.6839H72.4449ZM76.881 34.1124V37.541H75.6239V29.541H76.881V32.9696H78.3096V29.541H79.5896V37.541H78.3096V34.1124H76.881ZM80.364 30.6839V29.541H84.2497V30.6839H82.9354V37.541H81.6783V30.6839H80.364ZM87.4891 34.5582H88.6776V35.621C88.6776 36.2686 88.5176 36.7677 88.1976 37.1182C87.8776 37.461 87.4129 37.6324 86.8033 37.6324C86.1938 37.6324 85.7291 37.461 85.4091 37.1182C85.0891 36.7677 84.9291 36.2686 84.9291 35.621V31.461C84.9291 30.8134 85.0891 30.3182 85.4091 29.9753C85.7291 29.6248 86.1938 29.4496 86.8033 29.4496C87.4129 29.4496 87.8776 29.6248 88.1976 29.9753C88.5176 30.3182 88.6776 30.8134 88.6776 31.461V32.2382H87.4891V31.381C87.4891 30.8553 87.2719 30.5924 86.8376 30.5924C86.4033 30.5924 86.1862 30.8553 86.1862 31.381V35.701C86.1862 36.2191 86.4033 36.4782 86.8376 36.4782C87.2719 36.4782 87.4891 36.2191 87.4891 35.701V34.5582ZM89.3033 30.6839V29.541H93.189V30.6839H91.8747V37.541H90.6175V30.6839H89.3033ZM95.8683 29.541C96.516 29.541 96.9883 29.6934 97.2855 29.9982C97.5826 30.2953 97.7312 30.7563 97.7312 31.381V31.6667C97.7312 32.4896 97.4607 33.0267 96.9198 33.2782C97.5445 33.522 97.8569 34.0934 97.8569 34.9924V35.6439C97.8569 36.261 97.6931 36.7334 97.3655 37.061C97.0455 37.381 96.5731 37.541 95.9483 37.541H93.9712V29.541H95.8683ZM95.7883 33.941H95.2283V36.3982H95.9483C96.1693 36.3982 96.3331 36.341 96.4398 36.2267C96.5464 36.1048 96.5998 35.8991 96.5998 35.6096V34.9124C96.5998 34.5467 96.535 34.2953 96.4055 34.1582C96.2836 34.0134 96.0779 33.941 95.7883 33.941ZM95.8341 30.6839H95.2283V32.7982H95.7198C95.9712 32.7982 96.1579 32.7334 96.2798 32.6039C96.4093 32.4743 96.4741 32.2572 96.4741 31.9524V31.5067C96.4741 30.9582 96.2607 30.6839 95.8341 30.6839ZM99.9969 31.381V35.701C99.9969 36.2267 100.214 36.4896 100.648 36.4896C101.083 36.4896 101.3 36.2267 101.3 35.701V31.381C101.3 30.8553 101.083 30.5924 100.648 30.5924C100.214 30.5924 99.9969 30.8553 99.9969 31.381ZM98.7398 35.621V31.461C98.7398 30.821 98.9036 30.3258 99.2312 29.9753C99.5588 29.6248 100.031 29.4496 100.648 29.4496C101.265 29.4496 101.738 29.6248 102.065 29.9753C102.393 30.3258 102.557 30.821 102.557 31.461V35.621C102.557 36.261 102.393 36.7563 102.065 37.1067C101.738 37.4572 101.265 37.6324 100.648 37.6324C100.031 37.6324 99.5588 37.4572 99.2312 37.1067C98.9036 36.7563 98.7398 36.261 98.7398 35.621ZM106.863 34.1124V37.541H105.606V29.541H106.863V32.9696H108.291V29.541H109.571V37.541H108.291V34.1124H106.863ZM111.969 30.6839V32.9124H113.694V34.0553H111.969V36.3982H114.14V37.541H110.711V29.541H114.14V30.6839H111.969ZM120.028 38.6153H118.782V37.541H116.096V38.6153H114.873V36.421H115.365C115.548 36.1924 115.65 35.8458 115.673 35.381L115.959 29.541H119.479V36.421H120.028V38.6153ZM117.136 30.6839L116.908 35.3582C116.877 35.8686 116.759 36.2229 116.553 36.421H118.199V30.6839H117.136ZM122.854 29.541C123.501 29.541 123.974 29.6934 124.271 29.9982C124.568 30.2953 124.716 30.7563 124.716 31.381V31.6667C124.716 32.4896 124.446 33.0267 123.905 33.2782C124.53 33.522 124.842 34.0934 124.842 34.9924V35.6439C124.842 36.261 124.678 36.7334 124.351 37.061C124.031 37.381 123.558 37.541 122.934 37.541H120.956V29.541H122.854ZM122.774 33.941H122.214V36.3982H122.934C123.155 36.3982 123.318 36.341 123.425 36.2267C123.532 36.1048 123.585 35.8991 123.585 35.6096V34.9124C123.585 34.5467 123.52 34.2953 123.391 34.1582C123.269 34.0134 123.063 33.941 122.774 33.941ZM122.819 30.6839H122.214V32.7982H122.705C122.956 32.7982 123.143 32.7334 123.265 32.6039C123.395 32.4743 123.459 32.2572 123.459 31.9524V31.5067C123.459 30.9582 123.246 30.6839 122.819 30.6839ZM128.171 33.8724L127.119 37.541H125.828V29.541H126.948V34.6039L127.405 32.8439L128.434 29.541H129.816V37.541H128.685V31.9067L128.171 33.8724ZM134.557 29.541V32.7753L136.042 29.541H137.299L135.757 32.7867L137.299 37.541H136.008L134.865 33.9982L134.557 34.6039V37.541H133.311V34.6039L133.002 33.9867L131.859 37.541H130.568L132.122 32.821L130.568 29.541H131.825L133.311 32.7753V29.541H134.557ZM140.402 33.8724L139.351 37.541H138.06V29.541H139.18V34.6039L139.637 32.8439L140.665 29.541H142.048V37.541H140.917V31.9067L140.402 33.8724ZM144.903 29.541L145.828 35.221L146.685 29.541H148.434V37.541H147.245V31.8039L146.377 37.541H145.188L144.251 31.8839V37.541H143.154V29.541H144.903ZM150.731 31.381V35.701C150.731 36.2267 150.948 36.4896 151.383 36.4896C151.817 36.4896 152.034 36.2267 152.034 35.701V31.381C152.034 30.8553 151.817 30.5924 151.383 30.5924C150.948 30.5924 150.731 30.8553 150.731 31.381ZM149.474 35.621V31.461C149.474 30.821 149.638 30.3258 149.966 29.9753C150.293 29.6248 150.766 29.4496 151.383 29.4496C152 29.4496 152.472 29.6248 152.8 29.9753C153.127 30.3258 153.291 30.821 153.291 31.461V35.621C153.291 36.261 153.127 36.7563 152.8 37.1067C152.472 37.4572 152 37.6324 151.383 37.6324C150.766 37.6324 150.293 37.4572 149.966 37.1067C149.638 36.7563 149.474 36.261 149.474 35.621ZM156.794 34.5582H157.983V35.621C157.983 36.2686 157.823 36.7677 157.503 37.1182C157.183 37.461 156.718 37.6324 156.108 37.6324C155.499 37.6324 155.034 37.461 154.714 37.1182C154.394 36.7677 154.234 36.2686 154.234 35.621V31.461C154.234 30.8134 154.394 30.3182 154.714 29.9753C155.034 29.6248 155.499 29.4496 156.108 29.4496C156.718 29.4496 157.183 29.6248 157.503 29.9753C157.823 30.3182 157.983 30.8134 157.983 31.461V32.2382H156.794V31.381C156.794 30.8553 156.577 30.5924 156.143 30.5924C155.708 30.5924 155.491 30.8553 155.491 31.381V35.701C155.491 36.2191 155.708 36.4782 156.143 36.4782C156.577 36.4782 156.794 36.2191 156.794 35.701V34.5582ZM158.608 30.6839V29.541H162.494V30.6839H161.18V37.541H159.922V30.6839H158.608ZM165.619 33.8724L164.568 37.541H163.276V29.541H164.396V34.6039L164.853 32.8439L165.882 29.541H167.265V37.541H166.133V31.9067L165.619 33.8724Z" fill="#060606"/>
<path fill-rule="evenodd" clip-rule="evenodd" d="M27.2322 0.763672L0.00390625 27.6085L27.2322 8.81711L54.6522 27.6085L44.6813 17.8467V12.2149L38.9289 6.46249V12.2149L27.2322 0.763672ZM27.2322 2.68116L11.3171 18.2128L27.2322 6.89963V2.68116Z" fill="#060606"/>
<rect x="23.3945" y="16.1016" width="3.06798" height="3.06798" fill="#060606"/>
<rect x="23.3945" y="20.7051" width="3.06798" height="3.06798" fill="#060606"/>
<rect x="27.9961" y="16.1016" width="3.06798" height="3.06798" fill="#060606"/>
<rect x="27.9961" y="20.7051" width="3.06798" height="3.06798" fill="#060606"/>
<path d="M49.7978 28.0504C50.8326 27.6704 51.3313 27.8271 52.16 28.3484C50.5326 29.5754 49.5326 30.5356 48.2184 31.9768C46.6756 33.4887 45.3406 35.3051 42.9482 36.1066C38.7184 37.5432 34.3554 39.312 29.5928 39.0968C24.3981 38.922 19.8055 36.8601 15.4805 34.8279C11.4211 32.9194 6.34866 32.7523 1.92188 33.9632C3.72873 30.0695 8.187 27.8379 13.8344 27.7522C18.6405 27.6658 23.2078 28.7821 27.1764 30.7466C30.562 32.3998 34.7173 30.8291 38.4919 31.0033C40.0394 31.0557 41.9783 31.2965 42.5726 32.5952C42.7643 33.1704 41.5702 33.3797 40.9159 33.5748C37.3716 34.154 33.8029 35.0016 30.1451 34.5427C32.1681 35.0905 34.3594 35.2129 36.4472 34.7889C38.5831 34.3808 41.423 34.3356 42.8568 33.4489C43.7231 32.7869 43.7411 31.7866 44.6441 31.1117C46.7915 29.5068 47.6677 28.7724 49.7978 28.0504Z" fill="#060606"/>
<path d="M45.9834 27.7216C46.4799 27.5354 47.3663 27.7217 47.9415 27.9931C46.1974 29.3075 44.4391 30.2639 42.9482 31.8282C42.4288 31.5182 41.9973 31.1117 41.2344 31.0033C42.3349 29.5987 44.0305 28.4537 45.9834 27.7216Z" fill="#060606"/>
<path d="M42.4191 27.8776C42.9541 27.6185 43.5332 27.6003 43.9222 27.8778C43.197 28.329 42.2819 28.8088 40.7788 30.1905C40.9622 29.6068 41.6969 28.2272 42.4191 27.8776Z" fill="#060606"/>
</svg>
